<?xml version="1.0" encoding="UTF-8"?>
<svg width="978px" height="599px" viewBox="0 0 978 599" version="1.1" xmlns="http://www.w3.org/2000/svg" xmlns:xlink="http://www.w3.org/1999/xlink">
    <!-- Generator: Sketch 59 (86127) - https://sketch.com -->
    <title>screen 3</title>
    <desc>Created with Sketch.</desc>
    <defs>
        <radialGradient cx="39.6875223%" cy="80.7640366%" fx="39.6875223%" fy="80.7640366%" r="87.4767397%" gradientTransform="translate(0.396875,0.807640),scale(0.534831,1.000000),rotate(180.000000),scale(1.000000,0.492258),translate(-0.396875,-0.807640)" id="radialGradient-1">
            <stop stop-color="#2A214D" stop-opacity="0.545657835" offset="0%"></stop>
            <stop stop-color="#251A45" stop-opacity="0" offset="100%"></stop>
        </radialGradient>
        <linearGradient x1="100.767796%" y1="33.5443209%" x2="0%" y2="67.9434407%" id="linearGradient-2">
            <stop stop-color="#F4FF05" stop-opacity="0.389719203" offset="0%"></stop>
            <stop stop-color="#CB3D9A" offset="36.3676982%"></stop>
            <stop stop-color="#C56FDA" offset="79.0755961%"></stop>
            <stop stop-color="#38FFE7" stop-opacity="0.489073822" offset="100%"></stop>
        </linearGradient>
        <filter x="-27.2%" y="-45.3%" width="154.3%" height="190.7%" filterUnits="objectBoundingBox" id="filter-3">
            <feGaussianBlur stdDeviation="28.7925502" in="SourceGraphic"></feGaussianBlur>
        </filter>
        <linearGradient x1="0%" y1="53.3224691%" x2="100%" y2="47.3024994%" id="linearGradient-4">
            <stop stop-color="#45AFEE" stop-opacity="0" offset="0%"></stop>
            <stop stop-color="#43B1EC" stop-opacity="0.615532679" offset="3.75865802%"></stop>
            <stop stop-color="#41B3E9" stop-opacity="0.767525595" offset="8.05049139%"></stop>
            <stop stop-color="#3EB7E5" offset="14.6148856%"></stop>
            <stop stop-color="#23DBBD" offset="74.7658735%"></stop>
            <stop stop-color="#1EE0B7" stop-opacity="0.852976658" offset="84.2080663%"></stop>
            <stop stop-color="#1CE4B3" stop-opacity="0.768733457" offset="89.6183674%"></stop>
            <stop stop-color="#1BE5B1" stop-opacity="0.144474638" offset="92.7590933%"></stop>
            <stop stop-color="#17EAAC" stop-opacity="0" offset="100%"></stop>
        </linearGradient>
        <linearGradient x1="0%" y1="53.6750617%" x2="100%" y2="47.0162307%" id="linearGradient-5">
            <stop stop-color="#E64CF9" stop-opacity="0" offset="0%"></stop>
            <stop stop-color="#E84BF3" stop-opacity="0.512101243" offset="4.19453729%"></stop>
            <stop stop-color="#FF3B90" offset="73.1484827%"></stop>
            <stop stop-color="#F22BB9" stop-opacity="0.818936697" offset="85.5221253%"></stop>
            <stop stop-color="#ED24CA" stop-opacity="0.268908514" offset="90.5453834%"></stop>
            <stop stop-color="#E417EA" stop-opacity="0" offset="100%"></stop>
        </linearGradient>
        <linearGradient x1="0%" y1="53.38%" x2="100%" y2="47.0638042%" id="linearGradient-6">
            <stop stop-color="#4CF8F9" stop-opacity="0" offset="0%"></stop>
            <stop stop-color="#4AF6EA" stop-opacity="0.168110281" offset="4.38688535%"></stop>
            <stop stop-color="#3EE58A" stop-opacity="0.424507473" offset="30.1285264%"></stop>
            <stop stop-color="#3BBCFF" offset="74.7658735%"></stop>
            <stop stop-color="#279CF3" stop-opacity="0.783334328" offset="88.6806643%"></stop>
            <stop stop-color="#2294F0" stop-opacity="0.0688405797" offset="92.1136457%"></stop>
            <stop stop-color="#1781EA" stop-opacity="0" offset="100%"></stop>
        </linearGradient>
        <linearGradient x1="0%" y1="53.337285%" x2="100%" y2="47.2904704%" id="linearGradient-7">
            <stop stop-color="#55519D" stop-opacity="0" offset="0%"></stop>
            <stop stop-color="#373374" stop-opacity="0.521682518" offset="4.37382773%"></stop>
            <stop stop-color="#454188" offset="15.4014632%"></stop>
            <stop stop-color="#37337E" offset="100%"></stop>
        </linearGradient>
        <linearGradient x1="100.767796%" y1="45.2369033%" x2="0%" y2="55.1937293%" id="linearGradient-8">
            <stop stop-color="#F4FF05" stop-opacity="0.389719203" offset="0%"></stop>
            <stop stop-color="#CB3DC4" offset="44.5538295%"></stop>
            <stop stop-color="#6FBEDA" offset="79.0755961%"></stop>
            <stop stop-color="#38FFE7" stop-opacity="0.489073822" offset="100%"></stop>
        </linearGradient>
        <filter x="-5.7%" y="-17.6%" width="111.4%" height="135.3%" filterUnits="objectBoundingBox" id="filter-9">
            <feGaussianBlur stdDeviation="12.8822545" in="SourceGraphic"></feGaussianBlur>
        </filter>
        <linearGradient x1="0.265882726%" y1="51.5008793%" x2="100%" y2="48.5321104%" id="linearGradient-10">
            <stop stop-color="#C16364" stop-opacity="0" offset="0%"></stop>
            <stop stop-color="#C16C67" stop-opacity="0.558791893" offset="4.98343631%"></stop>
            <stop stop-color="#C17168" offset="8.84448107%"></stop>
            <stop stop-color="#C1756A" offset="12.4227441%"></stop>
            <stop stop-color="#C1DE8B" offset="83.6363082%"></stop>
            <stop stop-color="#C1E98F" offset="87.149513%"></stop>
            <stop stop-color="#C1EF91" stop-opacity="0.0925328351" offset="92.9392601%"></stop>
            <stop stop-color="#C1F793" stop-opacity="0" offset="100%"></stop>
        </linearGradient>
        <linearGradient x1="100%" y1="47.9571424%" x2="0%" y2="53.8580247%" id="linearGradient-11">
            <stop stop-color="#FFB844" stop-opacity="0" offset="0%"></stop>
            <stop stop-color="#FFA062" stop-opacity="0.535297781" offset="5.3237567%"></stop>
            <stop stop-color="#FF8E79" offset="9.49252334%"></stop>
            <stop stop-color="#FF4DCA" offset="23.940867%"></stop>
            <stop stop-color="#E930FF" offset="44.2535224%"></stop>
            <stop stop-color="#E44D88" offset="94.0664723%"></stop>
            <stop stop-color="#E34E81" stop-opacity="0.594202899" offset="97.0957532%"></stop>
            <stop stop-color="#E3507A" stop-opacity="0" offset="100%"></stop>
        </linearGradient>
        <linearGradient x1="100%" y1="47.7362437%" x2="0%" y2="54.2752013%" id="linearGradient-12">
            <stop stop-color="#FFB844" stop-opacity="0" offset="0%"></stop>
            <stop stop-color="#E79B77" stop-opacity="0.144389719" offset="6.58189953%"></stop>
            <stop stop-color="#CF7DAC" stop-opacity="0.690026544" offset="13.3017986%"></stop>
            <stop stop-color="#A94DFF" stop-opacity="0.64733356" offset="23.940867%"></stop>
            <stop stop-color="#B1FF72" offset="54.1478722%"></stop>
            <stop stop-color="#50C2F1" offset="76.7901687%"></stop>
            <stop stop-color="#62A0FF" offset="87.8053753%"></stop>
            <stop stop-color="#5E81E9" offset="94.0621514%"></stop>
            <stop stop-color="#FF10D1" stop-opacity="0" offset="100%"></stop>
        </linearGradient>
        <filter x="-1.0%" y="-3.3%" width="102.0%" height="106.8%" filterUnits="objectBoundingBox" id="filter-13">
            <feGaussianBlur stdDeviation="2.0047433" in="SourceGraphic"></feGaussianBlur>
        </filter>
        <linearGradient x1="100%" y1="46.8404522%" x2="0%" y2="55.9669421%" id="linearGradient-14">
            <stop stop-color="#2AFFAC" offset="0%"></stop>
            <stop stop-color="#58D4FF" offset="100%"></stop>
        </linearGradient>
        <linearGradient x1="100%" y1="48.7372662%" x2="0%" y2="52.3847272%" id="linearGradient-15">
            <stop stop-color="#2AB2FF" offset="0%"></stop>
            <stop stop-color="#58D4FF" offset="100%"></stop>
        </linearGradient>
        <linearGradient x1="5.09238759%" y1="51.3847159%" x2="100%" y2="48.5671594%" id="linearGradient-16">
            <stop stop-color="#C16364" offset="0%"></stop>
            <stop stop-color="#C1F793" offset="100%"></stop>
        </linearGradient>
        <linearGradient x1="98.2162211%" y1="47.7572695%" x2="0%" y2="54.4655833%" id="linearGradient-17">
            <stop stop-color="#FF28AE" offset="0%"></stop>
            <stop stop-color="#E400FF" offset="100%"></stop>
        </linearGradient>
        <path d="M9.5,139.5 L54.4062904,108.614866 C67.2115407,99.8078167 83.9750309,99.2713694 97.3171724,107.241677 C110.38177,115.046186 124.609379,115.35176 140,108.1584" id="path-18"></path>
        <filter x="-19.7%" y="-44.3%" width="139.2%" height="225.5%" filterUnits="objectBoundingBox" id="filter-19">
            <feMorphology radius="3.375" operator="dilate" in="SourceAlpha" result="shadowSpreadOuter1"></feMorphology>
            <feOffset dx="0" dy="6" in="shadowSpreadOuter1" result="shadowOffsetOuter1"></feOffset>
            <feMorphology radius="3.375" operator="erode" in="SourceAlpha" result="shadowInner"></feMorphology>
            <feOffset dx="0" dy="6" in="shadowInner" result="shadowInner"></feOffset>
            <feComposite in="shadowOffsetOuter1" in2="shadowInner" operator="out" result="shadowOffsetOuter1"></feComposite>
            <feGaussianBlur stdDeviation="6" in="shadowOffsetOuter1" result="shadowBlurOuter1"></feGaussianBlur>
            <feColorMatrix values="0 0 0 0 0.169923172   0 0 0 0 0.160960915   0 0 0 0 0.335724915  0 0 0 1 0" type="matrix" in="shadowBlurOuter1"></feColorMatrix>
        </filter>
        <linearGradient x1="0%" y1="100%" x2="0%" y2="0%" id="linearGradient-20">
            <stop stop-color="#F94CD5" stop-opacity="0" offset="0%"></stop>
            <stop stop-color="#FD8AD8" stop-opacity="0.567413714" offset="45.7573158%"></stop>
            <stop stop-color="#FA59FF" offset="100%"></stop>
        </linearGradient>
        <linearGradient x1="0%" y1="100%" x2="0%" y2="0%" id="linearGradient-21">
            <stop stop-color="#31AFD6" stop-opacity="0" offset="0%"></stop>
            <stop stop-color="#3BE5D8" offset="100%"></stop>
        </linearGradient>
        <linearGradient x1="0%" y1="100%" x2="0%" y2="-2.99905939%" id="linearGradient-22">
            <stop stop-color="#F5A623" stop-opacity="0" offset="0%"></stop>
            <stop stop-color="#F5A623" offset="100%"></stop>
        </linearGradient>
        <radialGradient cx="50%" cy="50%" fx="50%" fy="50%" r="73.3697646%" gradientTransform="translate(0.500000,0.500000),scale(1.000000,0.823529),rotate(33.498304),translate(-0.500000,-0.500000)" id="radialGradient-23">
            <stop stop-color="#FF731C" offset="0%"></stop>
            <stop stop-color="#FF49C8" stop-opacity="0" offset="100%"></stop>
        </radialGradient>
        <ellipse id="path-24" cx="42" cy="100.5" rx="42" ry="51"></ellipse>
        <filter x="-29.8%" y="-12.7%" width="159.5%" height="151.0%" filterUnits="objectBoundingBox" id="filter-25">
            <feOffset dx="0" dy="14" in="SourceAlpha" result="shadowOffsetOuter1"></feOffset>
            <feGaussianBlur stdDeviation="6" in="shadowOffsetOuter1" result="shadowBlurOuter1"></feGaussianBlur>
            <feColorMatrix values="0 0 0 0 0.136812264   0 0 0 0 0.101269035   0 0 0 0 0.213302509  0 0 0 0.624179121 0" type="matrix" in="shadowBlurOuter1"></feColorMatrix>
        </filter>
        <radialGradient cx="50%" cy="50%" fx="50%" fy="50%" r="61.9452857%" gradientTransform="translate(0.500000,0.500000),scale(1.000000,0.823529),rotate(36.180242),translate(-0.500000,-0.500000)" id="radialGradient-26">
            <stop stop-color="#FF1CAF" offset="0%"></stop>
            <stop stop-color="#FF9DF1" stop-opacity="0" offset="100%"></stop>
        </radialGradient>
        <ellipse id="path-27" cx="42" cy="100.5" rx="21" ry="25.5"></ellipse>
        <filter x="-46.4%" y="-26.5%" width="192.9%" height="176.5%" filterUnits="objectBoundingBox" id="filter-28">
            <feOffset dx="0" dy="6" in="SourceAlpha" result="shadowOffsetOuter1"></feOffset>
            <feGaussianBlur stdDeviation="5.5" in="shadowOffsetOuter1" result="shadowBlurOuter1"></feGaussianBlur>
            <feColorMatrix values="0 0 0 0 0.105882353   0 0 0 0 0.0980392157   0 0 0 0 0.250980392  0 0 0 1 0" type="matrix" in="shadowBlurOuter1"></feColorMatrix>
        </filter>
        <linearGradient x1="16.0899654%" y1="0%" x2="83.9100346%" y2="100%" id="linearGradient-29">
            <stop stop-color="#FFF2FE" offset="0%"></stop>
            <stop stop-color="#FFBFF6" offset="100%"></stop>
        </linearGradient>
        <ellipse id="path-30" cx="42" cy="99.75" rx="10.5" ry="12.75"></ellipse>
        <filter x="-90.5%" y="-66.7%" width="281.0%" height="249.0%" filterUnits="objectBoundingBox" id="filter-31">
            <feOffset dx="0" dy="2" in="SourceAlpha" result="shadowOffsetOuter1"></feOffset>
            <feGaussianBlur stdDeviation="6" in="shadowOffsetOuter1" result="shadowBlurOuter1"></feGaussianBlur>
            <feColorMatrix values="0 0 0 0 0.109803922   0 0 0 0 0.101960784   0 0 0 0 0.254901961  0 0 0 0.437839674 0" type="matrix" in="shadowBlurOuter1"></feColorMatrix>
        </filter>
        <linearGradient x1="18%" y1="0%" x2="82%" y2="100%" id="linearGradient-32">
            <stop stop-color="#FFF2FE" offset="0%"></stop>
            <stop stop-color="#FFBFF6" offset="100%"></stop>
        </linearGradient>
        <ellipse id="path-33" cx="42" cy="100.5" rx="6" ry="7.5"></ellipse>
        <filter x="-158.3%" y="-113.3%" width="416.7%" height="353.3%" filterUnits="objectBoundingBox" id="filter-34">
            <feOffset dx="0" dy="2" in="SourceAlpha" result="shadowOffsetOuter1"></feOffset>
            <feGaussianBlur stdDeviation="6" in="shadowOffsetOuter1" result="shadowBlurOuter1"></feGaussianBlur>
            <feColorMatrix values="0 0 0 0 0.109803922   0 0 0 0 0.101960784   0 0 0 0 0.254901961  0 0 0 0.437839674 0" type="matrix" in="shadowBlurOuter1"></feColorMatrix>
        </filter>
        <linearGradient x1="82.1226541%" y1="2.10026389%" x2="82.1226541%" y2="98.2647378%" id="linearGradient-35">
            <stop stop-color="#332F67" stop-opacity="0.443217844" offset="0%"></stop>
            <stop stop-color="#3D3C7D" stop-opacity="0.401268116" offset="100%"></stop>
        </linearGradient>
        <rect id="path-36" x="0" y="0" width="71" height="26" rx="10.875"></rect>
        <filter x="-29.6%" y="-46.2%" width="159.2%" height="261.5%" filterUnits="objectBoundingBox" id="filter-37">
            <feOffset dx="0" dy="9" in="SourceAlpha" result="shadowOffsetOuter1"></feOffset>
            <feGaussianBlur stdDeviation="5.5" in="shadowOffsetOuter1" result="shadowBlurOuter1"></feGaussianBlur>
            <feColorMatrix values="0 0 0 0 0.12457314   0 0 0 0 0.117131093   0 0 0 0 0.258529974  0 0 0 0.506567029 0" type="matrix" in="shadowBlurOuter1"></feColorMatrix>
        </filter>
        <linearGradient x1="82.1226541%" y1="2.10026389%" x2="82.1226541%" y2="98.2647378%" id="linearGradient-38">
            <stop stop-color="#332F67" stop-opacity="0.443217844" offset="0%"></stop>
            <stop stop-color="#3D3C7D" stop-opacity="0.401268116" offset="100%"></stop>
        </linearGradient>
        <rect id="path-39" x="1" y="0" width="61.5" height="25.5" rx="10.875"></rect>
        <filter x="-34.1%" y="-47.1%" width="168.3%" height="264.7%" filterUnits="objectBoundingBox" id="filter-40">
            <feOffset dx="0" dy="9" in="SourceAlpha" result="shadowOffsetOuter1"></feOffset>
            <feGaussianBlur stdDeviation="5.5" in="shadowOffsetOuter1" result="shadowBlurOuter1"></feGaussianBlur>
            <feColorMatrix values="0 0 0 0 0.12457314   0 0 0 0 0.117131093   0 0 0 0 0.258529974  0 0 0 0.506567029 0" type="matrix" in="shadowBlurOuter1"></feColorMatrix>
        </filter>
        <linearGradient x1="82.1226541%" y1="2.10026389%" x2="82.1226541%" y2="98.2647378%" id="linearGradient-41">
            <stop stop-color="#332F67" stop-opacity="0.443217844" offset="0%"></stop>
            <stop stop-color="#3D3C7D" stop-opacity="0.401268116" offset="100%"></stop>
        </linearGradient>
        <rect id="path-42" x="0" y="0" width="68" height="25.5" rx="10.875"></rect>
        <filter x="-30.9%" y="-47.1%" width="161.8%" height="264.7%" filterUnits="objectBoundingBox" id="filter-43">
            <feOffset dx="0" dy="9" in="SourceAlpha" result="shadowOffsetOuter1"></feOffset>
            <feGaussianBlur stdDeviation="5.5" in="shadowOffsetOuter1" result="shadowBlurOuter1"></feGaussianBlur>
            <feColorMatrix values="0 0 0 0 0.12457314   0 0 0 0 0.117131093   0 0 0 0 0.258529974  0 0 0 0.506567029 0" type="matrix" in="shadowBlurOuter1"></feColorMatrix>
        </filter>
    </defs>
    <g id="screen-3" stroke="none" stroke-width="1" fill="none" fill-rule="evenodd">
        <g id="Group" transform="translate(11.000000, 55.000000)">
            <path d="M98.25,355.5 C100.321068,355.5 102,357.514719 102,360 L102,378 C102,380.485281 100.321068,382.5 98.25,382.5 L45.75,382.5 C43.6789322,382.5 42,380.485281 42,378 L42,360 C42,357.514719 43.6789322,355.5 45.75,355.5 L98.25,355.5 Z M165.75,355.5 C167.821068,355.5 169.5,357.514719 169.5,360 L169.5,378 C169.5,380.485281 167.821068,382.5 165.75,382.5 L113.25,382.5 C111.178932,382.5 109.5,380.485281 109.5,378 L109.5,360 C109.5,357.514719 111.178932,355.5 113.25,355.5 L165.75,355.5 Z M233.25,355.5 C235.321068,355.5 237,357.514719 237,360 L237,378 C237,380.485281 235.321068,382.5 233.25,382.5 L180.75,382.5 C178.678932,382.5 177,380.485281 177,378 L177,360 C177,357.514719 178.678932,355.5 180.75,355.5 L233.25,355.5 Z M300.75,355.5 C302.821068,355.5 304.5,357.514719 304.5,360 L304.5,378 C304.5,380.485281 302.821068,382.5 300.75,382.5 L248.25,382.5 C246.178932,382.5 244.5,380.485281 244.5,378 L244.5,360 C244.5,357.514719 246.178932,355.5 248.25,355.5 L300.75,355.5 Z M368.25,355.5 C370.321068,355.5 372,357.514719 372,360 L372,378 C372,380.485281 370.321068,382.5 368.25,382.5 L315.75,382.5 C313.678932,382.5 312,380.485281 312,378 L312,360 C312,357.514719 313.678932,355.5 315.75,355.5 L368.25,355.5 Z M435.75,355.5 C437.821068,355.5 439.5,357.514719 439.5,360 L439.5,378 C439.5,380.485281 437.821068,382.5 435.75,382.5 L383.25,382.5 C381.178932,382.5 379.5,380.485281 379.5,378 L379.5,360 C379.5,357.514719 381.178932,355.5 383.25,355.5 L435.75,355.5 Z M503.25,355.5 C505.321068,355.5 507,357.514719 507,360 L507,378 C507,380.485281 505.321068,382.5 503.25,382.5 L450.75,382.5 C448.678932,382.5 447,380.485281 447,378 L447,360 C447,357.514719 448.678932,355.5 450.75,355.5 L503.25,355.5 Z M570.75,355.5 C572.821068,355.5 574.5,357.514719 574.5,360 L574.5,378 C574.5,380.485281 572.821068,382.5 570.75,382.5 L518.25,382.5 C516.178932,382.5 514.5,380.485281 514.5,378 L514.5,360 C514.5,357.514719 516.178932,355.5 518.25,355.5 L570.75,355.5 Z M638.25,355.5 C640.321068,355.5 642,357.514719 642,360 L642,378 C642,380.485281 640.321068,382.5 638.25,382.5 L585.75,382.5 C583.678932,382.5 582,380.485281 582,378 L582,360 C582,357.514719 583.678932,355.5 585.75,355.5 L638.25,355.5 Z M705.75,355.5 C707.821068,355.5 709.5,357.514719 709.5,360 L709.5,378 C709.5,380.485281 707.821068,382.5 705.75,382.5 L653.25,382.5 C651.178932,382.5 649.5,380.485281 649.5,378 L649.5,360 C649.5,357.514719 651.178932,355.5 653.25,355.5 L705.75,355.5 Z M98.25,318 C100.321068,318 102,320.014719 102,322.5 L102,340.5 C102,342.985281 100.321068,345 98.25,345 L45.75,345 C43.6789322,345 42,342.985281 42,340.5 L42,322.5 C42,320.014719 43.6789322,318 45.75,318 L98.25,318 Z M165.75,318 C167.821068,318 169.5,320.014719 169.5,322.5 L169.5,340.5 C169.5,342.985281 167.821068,345 165.75,345 L113.25,345 C111.178932,345 109.5,342.985281 109.5,340.5 L109.5,322.5 C109.5,320.014719 111.178932,318 113.25,318 L165.75,318 Z M233.25,318 C235.321068,318 237,320.014719 237,322.5 L237,340.5 C237,342.985281 235.321068,345 233.25,345 L180.75,345 C178.678932,345 177,342.985281 177,340.5 L177,322.5 C177,320.014719 178.678932,318 180.75,318 L233.25,318 Z M300.75,318 C302.821068,318 304.5,320.014719 304.5,322.5 L304.5,340.5 C304.5,342.985281 302.821068,345 300.75,345 L248.25,345 C246.178932,345 244.5,342.985281 244.5,340.5 L244.5,322.5 C244.5,320.014719 246.178932,318 248.25,318 L300.75,318 Z M368.25,318 C370.321068,318 372,320.014719 372,322.5 L372,340.5 C372,342.985281 370.321068,345 368.25,345 L315.75,345 C313.678932,345 312,342.985281 312,340.5 L312,322.5 C312,320.014719 313.678932,318 315.75,318 L368.25,318 Z M435.75,318 C437.821068,318 439.5,320.014719 439.5,322.5 L439.5,340.5 C439.5,342.985281 437.821068,345 435.75,345 L383.25,345 C381.178932,345 379.5,342.985281 379.5,340.5 L379.5,322.5 C379.5,320.014719 381.178932,318 383.25,318 L435.75,318 Z M503.25,318 C505.321068,318 507,320.014719 507,322.5 L507,340.5 C507,342.985281 505.321068,345 503.25,345 L450.75,345 C448.678932,345 447,342.985281 447,340.5 L447,322.5 C447,320.014719 448.678932,318 450.75,318 L503.25,318 Z M570.75,318 C572.821068,318 574.5,320.014719 574.5,322.5 L574.5,340.5 C574.5,342.985281 572.821068,345 570.75,345 L518.25,345 C516.178932,345 514.5,342.985281 514.5,340.5 L514.5,322.5 C514.5,320.014719 516.178932,318 518.25,318 L570.75,318 Z M638.25,318 C640.321068,318 642,320.014719 642,322.5 L642,340.5 C642,342.985281 640.321068,345 638.25,345 L585.75,345 C583.678932,345 582,342.985281 582,340.5 L582,322.5 C582,320.014719 583.678932,318 585.75,318 L638.25,318 Z M705.75,318 C707.821068,318 709.5,320.014719 709.5,322.5 L709.5,340.5 C709.5,342.985281 707.821068,345 705.75,345 L653.25,345 C651.178932,345 649.5,342.985281 649.5,340.5 L649.5,322.5 C649.5,320.014719 651.178932,318 653.25,318 L705.75,318 Z M98.25,282 C100.321068,282 102,284.014719 102,286.5 L102,304.5 C102,306.985281 100.321068,309 98.25,309 L45.75,309 C43.6789322,309 42,306.985281 42,304.5 L42,286.5 C42,284.014719 43.6789322,282 45.75,282 L98.25,282 Z M165.75,282 C167.821068,282 169.5,284.014719 169.5,286.5 L169.5,304.5 C169.5,306.985281 167.821068,309 165.75,309 L113.25,309 C111.178932,309 109.5,306.985281 109.5,304.5 L109.5,286.5 C109.5,284.014719 111.178932,282 113.25,282 L165.75,282 Z M233.25,282 C235.321068,282 237,284.014719 237,286.5 L237,304.5 C237,306.985281 235.321068,309 233.25,309 L180.75,309 C178.678932,309 177,306.985281 177,304.5 L177,286.5 C177,284.014719 178.678932,282 180.75,282 L233.25,282 Z M300.75,282 C302.821068,282 304.5,284.014719 304.5,286.5 L304.5,304.5 C304.5,306.985281 302.821068,309 300.75,309 L248.25,309 C246.178932,309 244.5,306.985281 244.5,304.5 L244.5,286.5 C244.5,284.014719 246.178932,282 248.25,282 L300.75,282 Z M368.25,282 C370.321068,282 372,284.014719 372,286.5 L372,304.5 C372,306.985281 370.321068,309 368.25,309 L315.75,309 C313.678932,309 312,306.985281 312,304.5 L312,286.5 C312,284.014719 313.678932,282 315.75,282 L368.25,282 Z M435.75,282 C437.821068,282 439.5,284.014719 439.5,286.5 L439.5,304.5 C439.5,306.985281 437.821068,309 435.75,309 L383.25,309 C381.178932,309 379.5,306.985281 379.5,304.5 L379.5,286.5 C379.5,284.014719 381.178932,282 383.25,282 L435.75,282 Z M503.25,282 C505.321068,282 507,284.014719 507,286.5 L507,304.5 C507,306.985281 505.321068,309 503.25,309 L450.75,309 C448.678932,309 447,306.985281 447,304.5 L447,286.5 C447,284.014719 448.678932,282 450.75,282 L503.25,282 Z M570.75,282 C572.821068,282 574.5,284.014719 574.5,286.5 L574.5,304.5 C574.5,306.985281 572.821068,309 570.75,309 L518.25,309 C516.178932,309 514.5,306.985281 514.5,304.5 L514.5,286.5 C514.5,284.014719 516.178932,282 518.25,282 L570.75,282 Z M638.25,282 C640.321068,282 642,284.014719 642,286.5 L642,304.5 C642,306.985281 640.321068,309 638.25,309 L585.75,309 C583.678932,309 582,306.985281 582,304.5 L582,286.5 C582,284.014719 583.678932,282 585.75,282 L638.25,282 Z M705.75,282 C707.821068,282 709.5,284.014719 709.5,286.5 L709.5,304.5 C709.5,306.985281 707.821068,309 705.75,309 L653.25,309 C651.178932,309 649.5,306.985281 649.5,304.5 L649.5,286.5 C649.5,284.014719 651.178932,282 653.25,282 L705.75,282 Z M98.25,244.5 C100.321068,244.5 102,246.514719 102,249 L102,267 C102,269.485281 100.321068,271.5 98.25,271.5 L45.75,271.5 C43.6789322,271.5 42,269.485281 42,267 L42,249 C42,246.514719 43.6789322,244.5 45.75,244.5 L98.25,244.5 Z M165.75,244.5 C167.821068,244.5 169.5,246.514719 169.5,249 L169.5,267 C169.5,269.485281 167.821068,271.5 165.75,271.5 L113.25,271.5 C111.178932,271.5 109.5,269.485281 109.5,267 L109.5,249 C109.5,246.514719 111.178932,244.5 113.25,244.5 L165.75,244.5 Z M233.25,244.5 C235.321068,244.5 237,246.514719 237,249 L237,267 C237,269.485281 235.321068,271.5 233.25,271.5 L180.75,271.5 C178.678932,271.5 177,269.485281 177,267 L177,249 C177,246.514719 178.678932,244.5 180.75,244.5 L233.25,244.5 Z M300.75,244.5 C302.821068,244.5 304.5,246.514719 304.5,249 L304.5,267 C304.5,269.485281 302.821068,271.5 300.75,271.5 L248.25,271.5 C246.178932,271.5 244.5,269.485281 244.5,267 L244.5,249 C244.5,246.514719 246.178932,244.5 248.25,244.5 L300.75,244.5 Z M368.25,244.5 C370.321068,244.5 372,246.514719 372,249 L372,267 C372,269.485281 370.321068,271.5 368.25,271.5 L315.75,271.5 C313.678932,271.5 312,269.485281 312,267 L312,249 C312,246.514719 313.678932,244.5 315.75,244.5 L368.25,244.5 Z M435.75,244.5 C437.821068,244.5 439.5,246.514719 439.5,249 L439.5,267 C439.5,269.485281 437.821068,271.5 435.75,271.5 L383.25,271.5 C381.178932,271.5 379.5,269.485281 379.5,267 L379.5,249 C379.5,246.514719 381.178932,244.5 383.25,244.5 L435.75,244.5 Z M503.25,244.5 C505.321068,244.5 507,246.514719 507,249 L507,267 C507,269.485281 505.321068,271.5 503.25,271.5 L450.75,271.5 C448.678932,271.5 447,269.485281 447,267 L447,249 C447,246.514719 448.678932,244.5 450.75,244.5 L503.25,244.5 Z M570.75,244.5 C572.821068,244.5 574.5,246.514719 574.5,249 L574.5,267 C574.5,269.485281 572.821068,271.5 570.75,271.5 L518.25,271.5 C516.178932,271.5 514.5,269.485281 514.5,267 L514.5,249 C514.5,246.514719 516.178932,244.5 518.25,244.5 L570.75,244.5 Z M638.25,244.5 C640.321068,244.5 642,246.514719 642,249 L642,267 C642,269.485281 640.321068,271.5 638.25,271.5 L585.75,271.5 C583.678932,271.5 582,269.485281 582,267 L582,249 C582,246.514719 583.678932,244.5 585.75,244.5 L638.25,244.5 Z M705.75,244.5 C707.821068,244.5 709.5,246.514719 709.5,249 L709.5,267 C709.5,269.485281 707.821068,271.5 705.75,271.5 L653.25,271.5 C651.178932,271.5 649.5,269.485281 649.5,267 L649.5,249 C649.5,246.514719 651.178932,244.5 653.25,244.5 L705.75,244.5 Z M98.25,208.5 C100.321068,208.5 102,210.514719 102,213 L102,231 C102,233.485281 100.321068,235.5 98.25,235.5 L45.75,235.5 C43.6789322,235.5 42,233.485281 42,231 L42,213 C42,210.514719 43.6789322,208.5 45.75,208.5 L98.25,208.5 Z M165.75,208.5 C167.821068,208.5 169.5,210.514719 169.5,213 L169.5,231 C169.5,233.485281 167.821068,235.5 165.75,235.5 L113.25,235.5 C111.178932,235.5 109.5,233.485281 109.5,231 L109.5,213 C109.5,210.514719 111.178932,208.5 113.25,208.5 L165.75,208.5 Z M233.25,208.5 C235.321068,208.5 237,210.514719 237,213 L237,231 C237,233.485281 235.321068,235.5 233.25,235.5 L180.75,235.5 C178.678932,235.5 177,233.485281 177,231 L177,213 C177,210.514719 178.678932,208.5 180.75,208.5 L233.25,208.5 Z M300.75,208.5 C302.821068,208.5 304.5,210.514719 304.5,213 L304.5,231 C304.5,233.485281 302.821068,235.5 300.75,235.5 L248.25,235.5 C246.178932,235.5 244.5,233.485281 244.5,231 L244.5,213 C244.5,210.514719 246.178932,208.5 248.25,208.5 L300.75,208.5 Z M368.25,208.5 C370.321068,208.5 372,210.514719 372,213 L372,231 C372,233.485281 370.321068,235.5 368.25,235.5 L315.75,235.5 C313.678932,235.5 312,233.485281 312,231 L312,213 C312,210.514719 313.678932,208.5 315.75,208.5 L368.25,208.5 Z M435.75,208.5 C437.821068,208.5 439.5,210.514719 439.5,213 L439.5,231 C439.5,233.485281 437.821068,235.5 435.75,235.5 L383.25,235.5 C381.178932,235.5 379.5,233.485281 379.5,231 L379.5,213 C379.5,210.514719 381.178932,208.5 383.25,208.5 L435.75,208.5 Z M503.25,208.5 C505.321068,208.5 507,210.514719 507,213 L507,231 C507,233.485281 505.321068,235.5 503.25,235.5 L450.75,235.5 C448.678932,235.5 447,233.485281 447,231 L447,213 C447,210.514719 448.678932,208.5 450.75,208.5 L503.25,208.5 Z M570.75,208.5 C572.821068,208.5 574.5,210.514719 574.5,213 L574.5,231 C574.5,233.485281 572.821068,235.5 570.75,235.5 L518.25,235.5 C516.178932,235.5 514.5,233.485281 514.5,231 L514.5,213 C514.5,210.514719 516.178932,208.5 518.25,208.5 L570.75,208.5 Z M638.25,208.5 C640.321068,208.5 642,210.514719 642,213 L642,231 C642,233.485281 640.321068,235.5 638.25,235.5 L585.75,235.5 C583.678932,235.5 582,233.485281 582,231 L582,213 C582,210.514719 583.678932,208.5 585.75,208.5 L638.25,208.5 Z M705.75,208.5 C707.821068,208.5 709.5,210.514719 709.5,213 L709.5,231 C709.5,233.485281 707.821068,235.5 705.75,235.5 L653.25,235.5 C651.178932,235.5 649.5,233.485281 649.5,231 L649.5,213 C649.5,210.514719 651.178932,208.5 653.25,208.5 L705.75,208.5 Z M98.25,172.5 C100.321068,172.5 102,174.514719 102,177 L102,195 C102,197.485281 100.321068,199.5 98.25,199.5 L45.75,199.5 C43.6789322,199.5 42,197.485281 42,195 L42,177 C42,174.514719 43.6789322,172.5 45.75,172.5 L98.25,172.5 Z M165.75,172.5 C167.821068,172.5 169.5,174.514719 169.5,177 L169.5,195 C169.5,197.485281 167.821068,199.5 165.75,199.5 L113.25,199.5 C111.178932,199.5 109.5,197.485281 109.5,195 L109.5,177 C109.5,174.514719 111.178932,172.5 113.25,172.5 L165.75,172.5 Z M233.25,172.5 C235.321068,172.5 237,174.514719 237,177 L237,195 C237,197.485281 235.321068,199.5 233.25,199.5 L180.75,199.5 C178.678932,199.5 177,197.485281 177,195 L177,177 C177,174.514719 178.678932,172.5 180.75,172.5 L233.25,172.5 Z M300.75,172.5 C302.821068,172.5 304.5,174.514719 304.5,177 L304.5,195 C304.5,197.485281 302.821068,199.5 300.75,199.5 L248.25,199.5 C246.178932,199.5 244.5,197.485281 244.5,195 L244.5,177 C244.5,174.514719 246.178932,172.5 248.25,172.5 L300.75,172.5 Z M368.25,172.5 C370.321068,172.5 372,174.514719 372,177 L372,195 C372,197.485281 370.321068,199.5 368.25,199.5 L315.75,199.5 C313.678932,199.5 312,197.485281 312,195 L312,177 C312,174.514719 313.678932,172.5 315.75,172.5 L368.25,172.5 Z M435.75,172.5 C437.821068,172.5 439.5,174.514719 439.5,177 L439.5,195 C439.5,197.485281 437.821068,199.5 435.75,199.5 L383.25,199.5 C381.178932,199.5 379.5,197.485281 379.5,195 L379.5,177 C379.5,174.514719 381.178932,172.5 383.25,172.5 L435.75,172.5 Z M503.25,172.5 C505.321068,172.5 507,174.514719 507,177 L507,195 C507,197.485281 505.321068,199.5 503.25,199.5 L450.75,199.5 C448.678932,199.5 447,197.485281 447,195 L447,177 C447,174.514719 448.678932,172.5 450.75,172.5 L503.25,172.5 Z M570.75,172.5 C572.821068,172.5 574.5,174.514719 574.5,177 L574.5,195 C574.5,197.485281 572.821068,199.5 570.75,199.5 L518.25,199.5 C516.178932,199.5 514.5,197.485281 514.5,195 L514.5,177 C514.5,174.514719 516.178932,172.5 518.25,172.5 L570.75,172.5 Z M638.25,172.5 C640.321068,172.5 642,174.514719 642,177 L642,195 C642,197.485281 640.321068,199.5 638.25,199.5 L585.75,199.5 C583.678932,199.5 582,197.485281 582,195 L582,177 C582,174.514719 583.678932,172.5 585.75,172.5 L638.25,172.5 Z M705.75,172.5 C707.821068,172.5 709.5,174.514719 709.5,177 L709.5,195 C709.5,197.485281 707.821068,199.5 705.75,199.5 L653.25,199.5 C651.178932,199.5 649.5,197.485281 649.5,195 L649.5,177 C649.5,174.514719 651.178932,172.5 653.25,172.5 L705.75,172.5 Z M98.25,135 C100.321068,135 102,137.014719 102,139.5 L102,157.5 C102,159.985281 100.321068,162 98.25,162 L45.75,162 C43.6789322,162 42,159.985281 42,157.5 L42,139.5 C42,137.014719 43.6789322,135 45.75,135 L98.25,135 Z M165.75,135 C167.821068,135 169.5,137.014719 169.5,139.5 L169.5,157.5 C169.5,159.985281 167.821068,162 165.75,162 L113.25,162 C111.178932,162 109.5,159.985281 109.5,157.5 L109.5,139.5 C109.5,137.014719 111.178932,135 113.25,135 L165.75,135 Z M233.25,135 C235.321068,135 237,137.014719 237,139.5 L237,157.5 C237,159.985281 235.321068,162 233.25,162 L180.75,162 C178.678932,162 177,159.985281 177,157.5 L177,139.5 C177,137.014719 178.678932,135 180.75,135 L233.25,135 Z M300.75,135 C302.821068,135 304.5,137.014719 304.5,139.5 L304.5,157.5 C304.5,159.985281 302.821068,162 300.75,162 L248.25,162 C246.178932,162 244.5,159.985281 244.5,157.5 L244.5,139.5 C244.5,137.014719 246.178932,135 248.25,135 L300.75,135 Z M368.25,135 C370.321068,135 372,137.014719 372,139.5 L372,157.5 C372,159.985281 370.321068,162 368.25,162 L315.75,162 C313.678932,162 312,159.985281 312,157.5 L312,139.5 C312,137.014719 313.678932,135 315.75,135 L368.25,135 Z M435.75,135 C437.821068,135 439.5,137.014719 439.5,139.5 L439.5,157.5 C439.5,159.985281 437.821068,162 435.75,162 L383.25,162 C381.178932,162 379.5,159.985281 379.5,157.5 L379.5,139.5 C379.5,137.014719 381.178932,135 383.25,135 L435.75,135 Z M503.25,135 C505.321068,135 507,137.014719 507,139.5 L507,157.5 C507,159.985281 505.321068,162 503.25,162 L450.75,162 C448.678932,162 447,159.985281 447,157.5 L447,139.5 C447,137.014719 448.678932,135 450.75,135 L503.25,135 Z M570.75,135 C572.821068,135 574.5,137.014719 574.5,139.5 L574.5,157.5 C574.5,159.985281 572.821068,162 570.75,162 L518.25,162 C516.178932,162 514.5,159.985281 514.5,157.5 L514.5,139.5 C514.5,137.014719 516.178932,135 518.25,135 L570.75,135 Z M638.25,135 C640.321068,135 642,137.014719 642,139.5 L642,157.5 C642,159.985281 640.321068,162 638.25,162 L585.75,162 C583.678932,162 582,159.985281 582,157.5 L582,139.5 C582,137.014719 583.678932,135 585.75,135 L638.25,135 Z M705.75,135 C707.821068,135 709.5,137.014719 709.5,139.5 L709.5,157.5 C709.5,159.985281 707.821068,162 705.75,162 L653.25,162 C651.178932,162 649.5,159.985281 649.5,157.5 L649.5,139.5 C649.5,137.014719 651.178932,135 653.25,135 L705.75,135 Z M98.25,99 C100.321068,99 102,101.014719 102,103.5 L102,121.5 C102,123.985281 100.321068,126 98.25,126 L45.75,126 C43.6789322,126 42,123.985281 42,121.5 L42,103.5 C42,101.014719 43.6789322,99 45.75,99 L98.25,99 Z M165.75,99 C167.821068,99 169.5,101.014719 169.5,103.5 L169.5,121.5 C169.5,123.985281 167.821068,126 165.75,126 L113.25,126 C111.178932,126 109.5,123.985281 109.5,121.5 L109.5,103.5 C109.5,101.014719 111.178932,99 113.25,99 L165.75,99 Z M233.25,99 C235.321068,99 237,101.014719 237,103.5 L237,121.5 C237,123.985281 235.321068,126 233.25,126 L180.75,126 C178.678932,126 177,123.985281 177,121.5 L177,103.5 C177,101.014719 178.678932,99 180.75,99 L233.25,99 Z M300.75,99 C302.821068,99 304.5,101.014719 304.5,103.5 L304.5,121.5 C304.5,123.985281 302.821068,126 300.75,126 L248.25,126 C246.178932,126 244.5,123.985281 244.5,121.5 L244.5,103.5 C244.5,101.014719 246.178932,99 248.25,99 L300.75,99 Z M368.25,99 C370.321068,99 372,101.014719 372,103.5 L372,121.5 C372,123.985281 370.321068,126 368.25,126 L315.75,126 C313.678932,126 312,123.985281 312,121.5 L312,103.5 C312,101.014719 313.678932,99 315.75,99 L368.25,99 Z M435.75,99 C437.821068,99 439.5,101.014719 439.5,103.5 L439.5,121.5 C439.5,123.985281 437.821068,126 435.75,126 L383.25,126 C381.178932,126 379.5,123.985281 379.5,121.5 L379.5,103.5 C379.5,101.014719 381.178932,99 383.25,99 L435.75,99 Z M503.25,99 C505.321068,99 507,101.014719 507,103.5 L507,121.5 C507,123.985281 505.321068,126 503.25,126 L450.75,126 C448.678932,126 447,123.985281 447,121.5 L447,103.5 C447,101.014719 448.678932,99 450.75,99 L503.25,99 Z M570.75,99 C572.821068,99 574.5,101.014719 574.5,103.5 L574.5,121.5 C574.5,123.985281 572.821068,126 570.75,126 L518.25,126 C516.178932,126 514.5,123.985281 514.5,121.5 L514.5,103.5 C514.5,101.014719 516.178932,99 518.25,99 L570.75,99 Z M638.25,99 C640.321068,99 642,101.014719 642,103.5 L642,121.5 C642,123.985281 640.321068,126 638.25,126 L585.75,126 C583.678932,126 582,123.985281 582,121.5 L582,103.5 C582,101.014719 583.678932,99 585.75,99 L638.25,99 Z M705.75,99 C707.821068,99 709.5,101.014719 709.5,103.5 L709.5,121.5 C709.5,123.985281 707.821068,126 705.75,126 L653.25,126 C651.178932,126 649.5,123.985281 649.5,121.5 L649.5,103.5 C649.5,101.014719 651.178932,99 653.25,99 L705.75,99 Z M98.25,61.5 C100.321068,61.5 102,63.5147186 102,66 L102,84 C102,86.4852814 100.321068,88.5 98.25,88.5 L45.75,88.5 C43.6789322,88.5 42,86.4852814 42,84 L42,66 C42,63.5147186 43.6789322,61.5 45.75,61.5 L98.25,61.5 Z M165.75,61.5 C167.821068,61.5 169.5,63.5147186 169.5,66 L169.5,84 C169.5,86.4852814 167.821068,88.5 165.75,88.5 L113.25,88.5 C111.178932,88.5 109.5,86.4852814 109.5,84 L109.5,66 C109.5,63.5147186 111.178932,61.5 113.25,61.5 L165.75,61.5 Z M233.25,61.5 C235.321068,61.5 237,63.5147186 237,66 L237,84 C237,86.4852814 235.321068,88.5 233.25,88.5 L180.75,88.5 C178.678932,88.5 177,86.4852814 177,84 L177,66 C177,63.5147186 178.678932,61.5 180.75,61.5 L233.25,61.5 Z M300.75,61.5 C302.821068,61.5 304.5,63.5147186 304.5,66 L304.5,84 C304.5,86.4852814 302.821068,88.5 300.75,88.5 L248.25,88.5 C246.178932,88.5 244.5,86.4852814 244.5,84 L244.5,66 C244.5,63.5147186 246.178932,61.5 248.25,61.5 L300.75,61.5 Z M368.25,61.5 C370.321068,61.5 372,63.5147186 372,66 L372,84 C372,86.4852814 370.321068,88.5 368.25,88.5 L315.75,88.5 C313.678932,88.5 312,86.4852814 312,84 L312,66 C312,63.5147186 313.678932,61.5 315.75,61.5 L368.25,61.5 Z M435.75,61.5 C437.821068,61.5 439.5,63.5147186 439.5,66 L439.5,84 C439.5,86.4852814 437.821068,88.5 435.75,88.5 L383.25,88.5 C381.178932,88.5 379.5,86.4852814 379.5,84 L379.5,66 C379.5,63.5147186 381.178932,61.5 383.25,61.5 L435.75,61.5 Z M503.25,61.5 C505.321068,61.5 507,63.5147186 507,66 L507,84 C507,86.4852814 505.321068,88.5 503.25,88.5 L450.75,88.5 C448.678932,88.5 447,86.4852814 447,84 L447,66 C447,63.5147186 448.678932,61.5 450.75,61.5 L503.25,61.5 Z M570.75,61.5 C572.821068,61.5 574.5,63.5147186 574.5,66 L574.5,84 C574.5,86.4852814 572.821068,88.5 570.75,88.5 L518.25,88.5 C516.178932,88.5 514.5,86.4852814 514.5,84 L514.5,66 C514.5,63.5147186 516.178932,61.5 518.25,61.5 L570.75,61.5 Z M638.25,61.5 C640.321068,61.5 642,63.5147186 642,66 L642,84 C642,86.4852814 640.321068,88.5 638.25,88.5 L585.75,88.5 C583.678932,88.5 582,86.4852814 582,84 L582,66 C582,63.5147186 583.678932,61.5 585.75,61.5 L638.25,61.5 Z M705.75,61.5 C707.821068,61.5 709.5,63.5147186 709.5,66 L709.5,84 C709.5,86.4852814 707.821068,88.5 705.75,88.5 L653.25,88.5 C651.178932,88.5 649.5,86.4852814 649.5,84 L649.5,66 C649.5,63.5147186 651.178932,61.5 653.25,61.5 L705.75,61.5 Z M98.25,25.5 C100.321068,25.5 102,27.5147186 102,30 L102,48 C102,50.4852814 100.321068,52.5 98.25,52.5 L45.75,52.5 C43.6789322,52.5 42,50.4852814 42,48 L42,30 C42,27.5147186 43.6789322,25.5 45.75,25.5 L98.25,25.5 Z M165.75,25.5 C167.821068,25.5 169.5,27.5147186 169.5,30 L169.5,48 C169.5,50.4852814 167.821068,52.5 165.75,52.5 L113.25,52.5 C111.178932,52.5 109.5,50.4852814 109.5,48 L109.5,30 C109.5,27.5147186 111.178932,25.5 113.25,25.5 L165.75,25.5 Z M233.25,25.5 C235.321068,25.5 237,27.5147186 237,30 L237,48 C237,50.4852814 235.321068,52.5 233.25,52.5 L180.75,52.5 C178.678932,52.5 177,50.4852814 177,48 L177,30 C177,27.5147186 178.678932,25.5 180.75,25.5 L233.25,25.5 Z M300.75,25.5 C302.821068,25.5 304.5,27.5147186 304.5,30 L304.5,48 C304.5,50.4852814 302.821068,52.5 300.75,52.5 L248.25,52.5 C246.178932,52.5 244.5,50.4852814 244.5,48 L244.5,30 C244.5,27.5147186 246.178932,25.5 248.25,25.5 L300.75,25.5 Z M368.25,25.5 C370.321068,25.5 372,27.5147186 372,30 L372,48 C372,50.4852814 370.321068,52.5 368.25,52.5 L315.75,52.5 C313.678932,52.5 312,50.4852814 312,48 L312,30 C312,27.5147186 313.678932,25.5 315.75,25.5 L368.25,25.5 Z M435.75,25.5 C437.821068,25.5 439.5,27.5147186 439.5,30 L439.5,48 C439.5,50.4852814 437.821068,52.5 435.75,52.5 L383.25,52.5 C381.178932,52.5 379.5,50.4852814 379.5,48 L379.5,30 C379.5,27.5147186 381.178932,25.5 383.25,25.5 L435.75,25.5 Z M503.25,25.5 C505.321068,25.5 507,27.5147186 507,30 L507,48 C507,50.4852814 505.321068,52.5 503.25,52.5 L450.75,52.5 C448.678932,52.5 447,50.4852814 447,48 L447,30 C447,27.5147186 448.678932,25.5 450.75,25.5 L503.25,25.5 Z M570.75,25.5 C572.821068,25.5 574.5,27.5147186 574.5,30 L574.5,48 C574.5,50.4852814 572.821068,52.5 570.75,52.5 L518.25,52.5 C516.178932,52.5 514.5,50.4852814 514.5,48 L514.5,30 C514.5,27.5147186 516.178932,25.5 518.25,25.5 L570.75,25.5 Z M638.25,25.5 C640.321068,25.5 642,27.5147186 642,30 L642,48 C642,50.4852814 640.321068,52.5 638.25,52.5 L585.75,52.5 C583.678932,52.5 582,50.4852814 582,48 L582,30 C582,27.5147186 583.678932,25.5 585.75,25.5 L638.25,25.5 Z M705.75,25.5 C707.821068,25.5 709.5,27.5147186 709.5,30 L709.5,48 C709.5,50.4852814 707.821068,52.5 705.75,52.5 L653.25,52.5 C651.178932,52.5 649.5,50.4852814 649.5,48 L649.5,30 C649.5,27.5147186 651.178932,25.5 653.25,25.5 L705.75,25.5 Z" id="Combined-Shape" fill="url(#radialGradient-1)" fill-rule="nonzero"></path>
            <g id="Group-30" transform="translate(52.500000, 399.000000)" font-family="HelveticaNeue, Helvetica Neue" font-size="9" font-weight="normal" letter-spacing="0.321428552">
                <text id="10:59PM" fill="#ACACB5">
                    <tspan x="0.280500067" y="9">10:59PM</tspan>
                </text>
                <text id="11:59PM" fill="#D1D1D9">
                    <tspan x="67.7805001" y="9">11:59PM</tspan>
                </text>
                <text id="12:59AM-Copy-2" fill="#CBCBD3">
                    <tspan x="135.2805" y="9">12:59AM</tspan>
                </text>
                <text id="1:59AM" fill="#BBBBC2">
                    <tspan x="206.193214" y="9">1:59AM</tspan>
                </text>
                <text id="2:59AM" fill="#CECED7">
                    <tspan x="273.693214" y="9">2:59AM</tspan>
                </text>
                <text id="3:59AM" fill="#C8C8CE">
                    <tspan x="341.193214" y="9">3:59AM</tspan>
                </text>
                <text id="4:59AM" fill="#CACAD1">
                    <tspan x="408.693214" y="9">4:59AM</tspan>
                </text>
                <text id="5:59AM" fill="#C1C1C6">
                    <tspan x="476.193214" y="9">5:59AM</tspan>
                </text>
                <text id="6:59AM" fill="#BBBAC2">
                    <tspan x="543.693214" y="9">6:59AM</tspan>
                </text>
                <text id="7:59AM" fill="#C2C2CA">
                    <tspan x="611.193214" y="9">7:59AM</tspan>
                </text>
            </g>
            <g id="Group-29" transform="translate(0.000000, 2.000000)" font-family="HelveticaNeue, Helvetica Neue" font-size="10.8" font-weight="normal" letter-spacing="0.385714245">
                <text id="2500" fill="#A0A0A4">
                    <tspan x="6.83794302" y="361">2500</tspan>
                </text>
                <text id="2000" fill="#ABABB0">
                    <tspan x="6.83794302" y="404.2">2000</tspan>
                </text>
                <text id="3000" fill="#AFAFB5">
                    <tspan x="6.83794302" y="316">3000</tspan>
                </text>
                <text id="3500" fill="#B7B7BD">
                    <tspan x="6.83794302" y="272.8">3500</tspan>
                </text>
                <text id="4000" fill="#A5A5AB">
                    <tspan x="6.83794302" y="229.6">4000</tspan>
                </text>
                <text id="4500" fill="#ADADB4">
                    <tspan x="6.83794302" y="184.6">4500</tspan>
                </text>
                <text id="5.000" fill="#B2B2B9">
                    <tspan x="3.44982878" y="141.4">5.000</tspan>
                </text>
                <text id="5.500" fill="#ABABB1">
                    <tspan x="3.44982878" y="98.2">5.500</tspan>
                </text>
                <text id="6.000" fill="#B6B6B9">
                    <tspan x="1.64982878" y="53.2">6.000</tspan>
                </text>
                <text id="6.500" fill="#A2A2A7">
                    <tspan x="1.64982878" y="10">6.500</tspan>
                </text>
            </g>
            <path d="M339.039589,184.936939 C354.217405,175.006662 362.479502,166.159083 363.825879,158.394203 C378.163459,75.7059328 373.395491,88.8563808 377.345673,76.0201946 C380.68771,65.1601896 385.727294,144.041414 398.376465,168.462137 C411.31262,193.43692 438.007825,64.4510307 453.957842,76.0201946 C467.778007,86.0444945 470.043889,168.850497 480.997431,168.462137 C495.046664,167.96402 499.216943,89.749196 504.281521,89.749196 C507.08359,89.749196 512.438358,144.860816 521.556814,158.394203 C522.495628,159.787567 530.466432,143.859897 531.32111,144.665202 C534.114648,147.297363 561.501248,151.341559 564.369497,150.156802 C579.516593,143.900155 570.241336,89.749196 575.635992,89.749196 C578.401306,89.749196 575.125008,130.485291 592.160185,139.173601 C608.8525,147.687043 646.141417,123.880857 622.204173,150.156802 C616.111272,156.844988 569.042358,174.235056 480.997431,202.327008 C477.483832,245.183893 473.2276,266.235029 468.228736,265.480414 C446.86728,262.255749 433.84798,205.500533 426.918253,208.733875 C410.416831,216.433276 419.384485,255.780766 402.883063,250.836146 C399.201991,249.73312 397.543665,209.881211 393.869866,208.733875 C375.996149,203.15187 348.706193,206.507849 312,218.801809 L339.039589,184.936939 Z" id="Path-5" fill="url(#linearGradient-2)" fill-rule="nonzero" opacity="0.453348214" filter="url(#filter-3)"></path>
            <path d="M40.5,313.5 L63.59197,304.215513 C65.6694429,303.380232 67.9489114,303.183881 70.1386226,303.65159 L95.9612448,309.167151 C99.3424162,309.889349 102.867884,309.016712 105.521776,306.800692 L131.973857,284.713001 C133.996916,283.023731 136.548859,282.098375 139.184461,282.098375 L158.584743,282.098375 C160.89551,282.098375 163.150225,281.386805 165.042388,280.060396 L187.72312,264.161157 C188.183293,263.838575 188.66699,263.550927 189.170149,263.300629 L217.925325,248.996291 C218.273354,248.823163 218.612177,248.632113 218.940429,248.423911 L252.513725,227.129204 C255.204292,225.422644 258.492305,224.936991 261.561349,225.792832 L300.641286,236.690755 C326.549711,243.915639 354.203968,234.086558 369.740823,212.130885 L387.920123,186.441081 C391.509143,181.369312 398.530098,180.167306 403.601867,183.756325 C404.128607,184.129071 404.6223,184.546445 405.077485,185.00383 L422.091339,202.099943 C423.458125,203.473337 425.15646,204.47044 427.021806,204.994652 L479.813025,219.830385 C482.198864,220.500869 484.739334,220.364783 487.039893,219.443261 L541.77055,197.520122 C557.513334,191.214127 574.928574,190.429681 591.174545,195.294784 L615.399019,202.549171 C618.851431,203.583048 622.590182,202.900335 625.454388,200.713014 L656.492645,177.009891 C657.773648,176.031622 659.249909,175.340038 660.821459,174.981972 L685.07898,169.455081 C687.288061,168.951759 689.293693,167.79315 690.833307,166.130934 L715.5,139.5 L715.5,139.5" id="Path-3-Copy" stroke="url(#linearGradient-4)" stroke-width="1.5" stroke-linecap="round" stroke-linejoin="round" fill-rule="nonzero"></path>
            <path d="M40.5,319.5 L65.3885353,311.41685 C66.311762,311.11701 67.1922999,310.698943 68.0082079,310.173067 L97.2014264,291.357196 C99.8265642,289.665219 103.036921,289.140663 106.064075,289.909084 L124.642663,294.625123 C129.139658,295.766653 133.876198,294.030398 136.57006,290.252944 L155.878303,263.178064 C159.37656,258.272653 166.118434,256.994103 171.169764,260.278145 L187.037912,270.59457 C187.950703,271.188006 188.944803,271.645798 189.989119,271.953626 L213.692049,278.940423 C216.721902,279.833519 219.987639,279.411703 222.691129,277.778065 L248.867819,261.960278 C249.110469,261.813652 249.34749,261.657906 249.578374,261.493373 L274.399693,243.805147 C274.639998,243.633901 274.873471,243.453266 275.099573,243.263663 L293.255362,228.038644 C298.016178,224.046336 305.111987,224.669334 309.104296,229.43015 C309.469635,229.865816 309.80142,230.328551 310.0968,230.814377 L328.067112,260.37106 C331.294933,265.680021 338.215363,267.367118 343.524324,264.139297 C343.989146,263.856687 344.432857,263.540736 344.851966,263.193928 L361.684463,249.265246 C364.60386,246.849481 368.543264,246.065709 372.165004,247.180071 L389.169825,252.41223 C393.153132,253.637841 397.487619,252.560958 400.434185,249.613654 L421.168306,228.874336 C423.106651,226.935506 425.686273,225.77121 428.422511,225.600198 L451.693366,224.145796 C453.350357,224.042236 455.009729,224.306702 456.552433,224.920221 L475.193944,232.333771 C480.053618,234.266417 485.604222,232.595262 488.589067,228.300817 L507.91038,200.502282 C511.125772,195.876138 517.267307,194.341729 522.280658,196.911992 L544.309789,208.205969 C562.490106,217.526721 584.658156,213.541533 598.453861,198.472396 L621.997358,172.755682 C626.192852,168.172918 633.309036,167.858972 637.8918,172.054466 C638.002727,172.156018 638.111606,172.259785 638.218371,172.365703 L652.530404,186.564108 C656.04014,190.045979 661.411723,190.828481 665.768953,188.492625 L686.031108,177.63034 C687.633138,176.771512 689.003208,175.537284 690.024047,174.033298 L715.5,136.5 L715.5,136.5" id="Path-3-Copy-2" stroke="url(#linearGradient-5)" stroke-width="1.5" opacity="0.5" stroke-linecap="round" stroke-linejoin="round" fill-rule="nonzero"></path>
            <path d="M40.5,312 L65.6464073,298.094111 C66.3991186,297.677864 67.1970837,297.349313 68.0246622,297.1149 L96.0881539,289.165843 C98.5037042,288.481632 101.078709,288.625074 103.403321,289.573337 L118.96218,295.920157 C130.920731,300.798327 144.527456,299.364977 155.20705,292.102075 L184.345514,272.285796 C188.524974,269.443459 194.08696,269.737367 197.943589,273.00435 L212.816463,285.603285 C223.755721,294.870022 240.135917,293.514175 249.402654,282.574917 C249.834526,282.065097 250.246554,281.538794 250.637817,280.997183 L265.459754,260.479709 C274.911206,247.396405 288.331105,237.711119 303.725771,232.862711 L327.139723,225.488705 C329.679205,224.688918 332.420039,224.815709 334.874837,225.84653 L368.072557,239.786948 C368.931134,240.147483 369.741627,240.613223 370.485437,241.173481 L405.405451,267.476203 L405.405451,267.476203 L434.687987,224.25 L451.613022,234.046379 C456.990412,237.158866 463.872817,235.322799 466.985303,229.945409 C467.189353,229.592877 467.374105,229.229522 467.538745,228.856952 L472.980534,216.542474 C479.041647,202.826499 494.14937,195.523773 508.663081,199.294352 L537.117294,206.686591 C555.832025,211.54857 575.695727,205.563378 588.60901,191.171466 L600.8236,177.558251 C604.973008,172.933717 612.085693,172.548551 616.710226,176.697959 C617.152643,177.094922 617.562902,177.526322 617.937153,177.98811 L620.513644,181.167243 C624.425647,185.994263 631.510026,186.736031 636.337047,182.824028 C637.149354,182.165703 637.865921,181.39735 638.466057,180.541153 L653.987511,158.397165 C656.666408,154.575263 661.426946,152.804371 665.952363,153.94631 L682.826089,158.204211 C686.365805,159.097419 690.118855,158.217502 692.892691,155.844056 L715.5,136.5 L715.5,136.5" id="Path-3-Copy-4" stroke="url(#linearGradient-6)" stroke-width="1.5" stroke-linecap="round" stroke-linejoin="round" fill-rule="nonzero"></path>
            <path d="M42,310.5 L72.6794922,310.5 C73.2025015,310.5 73.7248742,310.463528 74.2428091,310.39085 L119.164071,304.087366 L119.164071,304.087366 L161.758712,277.59419 C161.830581,277.549489 161.902951,277.5056 161.97581,277.462533 L186.93736,262.70748 C188.671061,261.68267 190.648077,261.142045 192.662016,261.142045 L215.408882,261.142045 C218.083336,261.142045 220.670311,260.189257 222.705869,258.45455 L248.977599,236.065719 C249.833086,235.336672 250.574487,234.483535 251.177101,233.534733 L268.219417,206.701998 C271.550533,201.457232 278.502658,199.905913 283.747424,203.237028 C284.440848,203.677444 285.083949,204.192484 285.665222,204.772935 L298.625685,217.71506 C301.976364,221.060998 307.063508,221.950634 311.350865,219.940432 L334.026553,209.308537 C334.623565,209.028618 335.24403,208.801728 335.880783,208.630487 L391.835408,193.582728 C394.728528,192.804687 397.812485,193.212753 400.403685,194.716473 L424.200264,208.526058 C424.615458,208.767002 425.014804,209.034275 425.395854,209.326235 L444.859213,224.239076 C449.79116,228.017938 456.852666,227.083177 460.631527,222.15123 C460.873451,221.835485 461.098459,221.507132 461.305603,221.167553 L475.298093,198.229131 C478.533685,192.924902 485.456577,191.247941 490.760806,194.483533 C492.002111,195.240731 493.08486,196.231381 493.949136,197.40066 L502.896038,209.504934 C506.589182,214.501391 513.633496,215.557936 518.629953,211.864792 C520.09869,210.779172 521.281028,209.352284 522.074823,207.707399 L537.874903,174.966826 C539.751642,171.07789 543.688702,168.606319 548.006801,168.606319 L566.089501,168.606319 C569.168415,168.606319 572.112788,167.344424 574.236149,165.114839 L595.122347,143.183785 C599.204921,138.896975 605.911196,138.507457 610.462621,142.292782 L623.087856,152.792923 C627.173159,156.190584 633.078643,156.266609 637.250058,152.975242 L644.703838,147.093996 C653.888187,139.847281 665.97337,137.40468 677.251173,140.515679 L715.5,151.066676 L715.5,151.066676" id="Path-3-Copy-5" stroke="url(#linearGradient-7)" stroke-width="1.5" stroke-linecap="round" stroke-linejoin="round" fill-rule="nonzero"></path>
            <path d="M42.468652,297.220499 C37.6283448,294.340543 42.6466101,290.756683 47.4869173,293.63664 L68.009592,305.847521 C68.288342,306.013376 77.7883269,300.657517 96.5095468,289.779945 C99.4112957,288.01982 102.607084,287.103919 105.846818,287.103919 L130.203442,287.103919 C130.442921,287.103919 137.574823,278.583287 151.599149,261.542023 C156.842098,256.025659 163.973108,254.01921 170.662995,256.178037 L186.586175,261.316449 C186.847384,261.400742 193.94013,256.764969 207.864412,247.40913 C213.890942,242.980133 221.332318,242.531451 227.686543,246.213944 L245.666975,246.707605 C246.289312,247.06827 247.032732,246.864667 247.46948,246.213944 L263.624531,222.144085 C268.022919,215.590806 274.786877,212.114499 281.697138,212.855748 L305.16936,213.872958 C305.293088,213.88623 317.903141,197.582233 342.999519,164.960966 L367.597853,173.833233 L395.856259,154.30844 C396.031769,154.383459 403.791557,156.616576 419.135623,161.007792 C419.305175,160.961953 426.726465,148.240335 441.399494,122.842936 C459.531105,145.345574 471.279068,159.200592 476.643384,164.407991 C495.640091,142.406574 507.138097,131.405866 511.137404,131.405866 C517.501849,131.405866 530.249639,139.040058 549.380774,154.30844 C549.529868,154.404631 597.694592,107.874831 603.878116,108.503293 C612.4103,109.37046 620.563807,117.794829 625.867515,122.842936 C626.377186,123.328045 635.625583,118.548164 653.612705,108.503293 C659.960392,100.724335 661.565745,108.11414 669.637717,112.951811 L686.029345,122.775595 C686.375325,122.982947 697.565965,113.644998 719.601265,94.7617485 C723.822745,90.6796336 693.294922,135.760251 686.029345,131.405866 L659.611665,117.664322 C659.035095,117.318774 634.535041,143.904282 628.647641,143.315205 C625.397884,142.990043 617.141376,136.165953 603.878116,122.842936 C603.339577,122.31554 590.422886,139.312306 565.128044,173.833233 C560.210383,175.225489 536.586298,176.713135 532.122539,173.833233 L517.513704,164.407991 C516.8507,163.980237 516.030985,164.216391 515.59427,164.960966 L498.20166,212.855748 C497.999087,213.201125 497.78952,213.5403 497.573154,213.872958 C490.359146,224.964367 477.151217,236.936083 468.072417,228.122857 L455.555816,199.756641 C438.908682,227.982547 425.191468,243.468315 414.404174,246.213944 C403.616879,248.959573 390.4785,244.146556 374.989034,231.774892 L342.999519,226.458254 C341.953171,227.075682 340.866673,227.585925 339.75122,227.983728 L311.184156,238.171573 C308.680377,239.064493 306.062333,239.379665 303.464051,239.100953 L279.99183,236.583138 C279.49824,236.530192 279.0151,236.778499 278.700929,237.246591 L262.545878,261.316449 C256.431411,270.426563 246.023531,273.277018 237.310812,268.227695 L219.960053,256.178037 C219.65747,256.002681 212.268243,261.77952 197.792371,273.508556 C192.93071,277.081472 187.092426,278.098683 181.607032,276.328546 L165.683853,268.227695 C165.365287,268.124894 155.28818,276.594542 135.452532,293.63664 C133.576339,295.610675 126.704283,290.9154 103.957992,295.081827 C98.5894002,296.06519 89.5909601,300.74786 76.9626722,309.129838 C71.1308526,312.667268 67.0691514,315.361096 61.2154021,311.878147 L42.468652,297.220499 Z" id="Glow-Effect" fill="url(#linearGradient-8)" fill-rule="nonzero" opacity="0.542522321" filter="url(#filter-9)"></path>
            <path d="M43.5,300.123263 L64.204135,311.836205 C67.2296712,313.547841 70.8765421,313.764696 74.0835997,312.423671 L102.819044,300.408004 C103.272527,300.218381 103.737951,300.058681 104.212322,299.929933 L129.48823,293.069837 C131.615775,292.492403 133.526784,291.302613 134.983851,289.648276 L159.390497,261.937246 C161.526231,259.512358 164.601538,258.122904 167.83286,258.122904 L185.087293,258.122904 C187.621321,258.122904 190.081135,258.978418 192.068273,260.550863 L210.133758,274.846282 C215.006037,278.70177 222.08129,277.877499 225.936779,273.005219 C225.948409,272.990523 225.960002,272.975797 225.971558,272.961042 L243.584688,250.472824 C247.100865,245.983414 253.419907,244.834908 258.290948,247.799915 L269.125674,254.395022 C272.861473,256.669006 277.576595,256.571828 281.215528,254.145852 L305.502659,237.954293 C306.33056,237.402354 307.228027,236.962688 308.171571,236.646804 L361.155183,218.90866 C364.658767,217.735711 368.514955,218.357849 371.471903,220.573106 L393.001462,236.702412 C394.947933,238.160651 397.31456,238.948828 399.74668,238.948828 L419.892212,238.948828 C422.845031,238.948828 425.679472,237.787894 427.783904,235.71654 L454.509857,209.410658 C457.693464,206.277091 462.429463,205.323978 466.577387,206.982085 L505.083076,222.374497 C508.197168,223.619336 511.704269,223.409934 514.64811,221.803386 L537.873694,209.128446 C547.677153,203.778387 559.463968,203.504892 569.505023,208.394491 L574.372056,210.764544 C586.741994,216.788218 601.508429,214.886203 611.94815,205.924493 L624,195.578892 C640.003088,181.841453 664.112548,183.678124 677.849987,199.681212 C677.927977,199.772064 678.005539,199.863283 678.082671,199.954865 L714,242.601033 L714,242.601033" id="Path-3" stroke="url(#linearGradient-10)" stroke-width="1.5" stroke-linecap="round" stroke-linejoin="round" fill-rule="nonzero"></path>
            <path d="M40.5,301.525939 L63.6809024,308.389793 C66.6195286,309.259919 69.7859503,308.893493 72.4481856,307.375222 L100.228474,291.532146 C101.926328,290.563861 103.84716,290.054632 105.801715,290.054632 L127.285507,290.054632 C130.361346,290.054632 133.303055,288.795247 135.426047,286.569559 L157.266336,263.672789 C160.243763,260.551335 164.743892,259.407276 168.850581,260.727749 L182.952718,265.262179 C186.383624,266.365359 190.135374,265.758052 193.043041,263.628828 L212.528599,249.359957 C216.126005,246.725651 220.939721,246.464526 224.800981,248.694229 L240.140579,257.552154 C245.260055,260.50842 251.794278,258.997975 255.096983,254.094843 L270.973631,230.524679 C273.303016,227.06652 277.353987,225.180302 281.499893,225.623428 L303.747357,228.001301 C305.424526,228.180562 307.120538,227.980398 308.709896,227.415621 L336.819801,217.42679 C337.491988,217.187928 338.139932,216.885674 338.75488,216.524109 L361.471464,203.167656 C364.547373,201.359143 368.29885,201.117052 371.581694,202.51522 L392.065964,211.2395 C394.384392,212.226922 396.967207,212.407366 399.400412,211.751909 L421.67035,205.752829 C423.319333,205.308626 424.845546,204.494837 426.133291,203.373153 L449.58927,182.941942 C451.138266,181.592697 453.027126,180.693327 455.050981,180.341379 L485.186118,175.100887 C487.502406,174.698086 489.634297,173.579728 491.28227,171.902939 L507.1134,155.794989 C510.848677,151.994397 516.738008,151.335818 521.22053,154.217446 L536.293836,163.907452 C539.003949,165.649672 542.330967,166.146354 545.431758,165.27163 L568.345493,158.807726 C569.825438,158.390238 571.204085,157.673785 572.396293,156.702614 L596.963344,136.690323 C600.146116,134.097641 604.488424,133.444422 608.293113,134.985971 L624.74011,141.649812 C627.994605,142.968438 631.678154,142.691802 634.699196,140.90188 L654.789174,128.99887 C657.140092,127.605987 659.91761,127.116374 662.603096,127.621454 L685.218997,131.875003 C687.341385,132.274177 689.533816,132.054033 691.534472,131.24086 L715.5,121.5 L715.5,121.5" id="Path-3-Copy-3" stroke="url(#linearGradient-11)" stroke-width="3" stroke-linecap="round" stroke-linejoin="round" fill-rule="nonzero"></path>
            <path d="M43.5,288.85816 L53.25,281.032078 L57,298.5 L62.25,276.019428 L66,293.016913 L72,281.032078 L78,287.533826 L84,267.429175 L87.75,276.019428 L93,259.204544 L96.75,281.032078 L102,271.998414 L109.5,281.032078 L116.25,269.25687 L125.25,284.792283 L129.75,267.429175 L136.5,269.25687 L144,254.635305 L149.25,271.998414 L156,254.635305 L165.75,259.204544 L173.25,246.795328 L178.5,259.204544 L183.75,243.669132 L187.5,254.635305 L192.75,228.133719 L200.25,241.841436 L216,211.579117 L234,220.822936 L238.5,195.235198 L251.25,209.856763 L262.5,185.761108 L271.5,216.472677 L288,220.822936 L297,199.109569 L314.25,185.761108 L327.113942,199.267837 C337.299904,209.962773 352.297249,214.62107 366.75,211.579117 L366.75,211.579117 L366.75,211.579117 L375.75,188.269173 L394.5,202.54598 L424.5,178.269731 L454.5,199.109569 L483.75,178.269731 L513.75,165.367967 L540.75,142.568562 L570.75,142.568562 L596.25,123.955069 L616.5,142.568562 L634.272708,119.815743 C635.836189,117.814158 638.234469,116.644286 640.774315,116.644286 L647.25,116.644286 C653.959384,116.644286 660.38,113.914476 665.035097,109.082715 L667.875,106.135037 C672.783492,101.040264 680.892741,100.889254 685.987513,105.797747 C686.387344,106.182958 686.761707,106.593756 687.108235,107.027542 L715.5,142.568562 L715.5,142.568562" id="Path-3-Copy-6" stroke="url(#linearGradient-12)" stroke-width="1.5" stroke-linecap="round" stroke-linejoin="round" fill-rule="nonzero" filter="url(#filter-13)"></path>
            <g id="Group-21" transform="translate(332.000000, 45.000000)">
                <g id="Group-22" transform="translate(2.000000, 12.000000)" fill-rule="nonzero">
                    <path d="M9.5,148.5 C53.75,148.5 61.25,103.549187 98,92.5880088 C120.592778,85.8494111 148.25,112.997194 174.5,103.549187" id="Path-3-Copy-8" stroke="url(#linearGradient-14)" stroke-width="1.5" opacity="0.400000006" stroke-linecap="round" stroke-linejoin="round"></path>
                    <path d="M0.5,160.795472 C44.9520548,160.795472 46.0821918,139.020998 83,128.133761 C105.695941,121.44062 139.130137,170.179745 165.5,160.795472" id="Path-3-Copy-10" stroke="#65FFA0" stroke-width="1.5" opacity="0.300000012" stroke-linecap="round" stroke-linejoin="round"></path>
                    <path d="M9.5,147 C33.8736767,123.386892 57.1236767,114.446912 79.25,120.18006 C109.25,127.953355 106.25,135.829458 140,120.18006" id="Path-3-Copy-7" stroke="url(#linearGradient-15)" stroke-width="1.5" stroke-linecap="round" stroke-linejoin="round"></path>
                    <path d="M9.07927163,148.166973 C32.7534779,130.60536 55.8947669,125.262772 78.5031387,132.13921 C109.156725,141.462636 105.367195,137.969177 138.860069,123.784706" id="Path-3-Copy-9" stroke="url(#linearGradient-16)" stroke-width="1.5" opacity="0.600000024" stroke-linecap="round" stroke-linejoin="round" transform="translate(73.969670, 135.975839) rotate(13.000000) translate(-73.969670, -135.975839) "></path>
                    <g id="Path-3-Copy-3" stroke-linecap="round" stroke-linejoin="round">
                        <use fill="black" fill-opacity="1" filter="url(#filter-19)" xlink:href="#path-18"></use>
                        <use stroke="url(#linearGradient-17)" stroke-width="6.75" xlink:href="#path-18"></use>
                    </g>
                    <g id="Pin" transform="translate(35.000000, 0.000000)">
                        <line x1="41.25" y1="0" x2="41.25" y2="322.5" id="Path-4" stroke="url(#linearGradient-20)" stroke-width="0.75" stroke-linecap="round" stroke-linejoin="round"></line>
                        <line x1="66.75" y1="36" x2="66.75" y2="90" id="Path-4-Copy" stroke="url(#linearGradient-21)" stroke-width="0.75" stroke-linecap="round" stroke-linejoin="round"></line>
                        <line x1="15.75" y1="36" x2="15.75" y2="124.5" id="Path-4-Copy-2" stroke="url(#linearGradient-22)" stroke-width="0.75" stroke-linecap="round" stroke-linejoin="round"></line>
                        <g id="Oval-8-Copy" opacity="0.300000012">
                            <use fill="black" fill-opacity="1" filter="url(#filter-25)" xlink:href="#path-24"></use>
                            <use fill="url(#radialGradient-23)" xlink:href="#path-24"></use>
                        </g>
                        <g id="Oval-8-Copy-2" opacity="0.300000012">
                            <use fill="black" fill-opacity="1" filter="url(#filter-28)" xlink:href="#path-27"></use>
                            <use fill="url(#radialGradient-26)" xlink:href="#path-27"></use>
                        </g>
                        <g id="Oval-8-Copy-3" opacity="0.200000003">
                            <use fill="black" fill-opacity="1" filter="url(#filter-31)" xlink:href="#path-30"></use>
                            <use fill="url(#linearGradient-29)" xlink:href="#path-30"></use>
                        </g>
                        <g id="Oval-8">
                            <use fill="black" fill-opacity="1" filter="url(#filter-34)" xlink:href="#path-33"></use>
                            <use fill="url(#linearGradient-32)" xlink:href="#path-33"></use>
                        </g>
                    </g>
                </g>
                <g id="Group-23" transform="translate(67.000000, 0.000000)">
                    <g id="Rectangle-12" fill-rule="nonzero">
                        <use fill="black" fill-opacity="1" filter="url(#filter-37)" xlink:href="#path-36"></use>
                        <use fill="url(#linearGradient-35)" xlink:href="#path-36"></use>
                    </g>
                    <text id="$6,120" font-family="HelveticaNeue-Medium, Helvetica Neue" font-size="12" font-weight="400" fill="#FFFFFF">
                        <tspan x="23" y="16">$6,120</tspan>
                    </text>
                    <ellipse id="Oval-6" fill="#FB49C0" fill-rule="nonzero" cx="12.5" cy="13" rx="3.5" ry="4"></ellipse>
                </g>
                <g id="Group-23-Copy" transform="translate(0.000000, 31.500000)">
                    <g id="Rectangle-12" fill-rule="nonzero">
                        <use fill="black" fill-opacity="1" filter="url(#filter-40)" xlink:href="#path-39"></use>
                        <use fill="url(#linearGradient-38)" xlink:href="#path-39"></use>
                    </g>
                    <text id="$5,987" font-family="HelveticaNeue-Medium, Helvetica Neue" font-size="12" font-weight="400" fill="#FFFFFF">
                        <tspan x="7.804" y="16">$5,987</tspan>
                    </text>
                    <ellipse id="Oval-6" fill="#F5A623" fill-rule="nonzero" cx="52" cy="12.75" rx="3" ry="3.75"></ellipse>
                </g>
                <g id="Group-23-Copy-3" transform="translate(92.500000, 36.000000)">
                    <g id="Rectangle-12" fill-rule="nonzero">
                        <use fill="black" fill-opacity="1" filter="url(#filter-43)" xlink:href="#path-42"></use>
                        <use fill="url(#linearGradient-41)" xlink:href="#path-42"></use>
                    </g>
                    <text id="$5,829" font-family="HelveticaNeue-Medium, Helvetica Neue" font-size="12" font-weight="400" fill="#FFFFFF">
                        <tspan x="19.5" y="16">$5,829</tspan>
                    </text>
                    <ellipse id="Oval-6" fill="#31AFD6" fill-rule="nonzero" cx="10.5" cy="12.75" rx="3" ry="3.75"></ellipse>
                </g>
            </g>
            <g id="Group-38" transform="translate(68.000000, 0.000000)">
                <g id="Group-23-Copy-2" transform="translate(67.500000, 0.000000)">
                    <rect id="Rectangle-12" fill-rule="nonzero" x="0" y="0" width="58.5" height="25.5" rx="10.875"></rect>
                    <text id="PROFIT" font-family="HelveticaNeue-Medium, Helvetica Neue" font-size="9" font-weight="400" letter-spacing="0.321428552" fill="#C2C2CB">
                        <tspan x="30.2164287" y="15">PROFIT</tspan>
                    </text>
                    <ellipse id="Oval-6" fill="#31AFD6" fill-rule="nonzero" cx="15" cy="12.75" rx="3" ry="3.75"></ellipse>
                </g>
                <g id="Group-23-Copy-5" transform="translate(136.500000, 0.000000)">
                    <rect id="Rectangle-12" fill-rule="nonzero" x="0" y="0" width="57" height="25.5" rx="10.875"></rect>
                    <text id="ROI" font-family="HelveticaNeue-Medium, Helvetica Neue" font-size="9" font-weight="400" letter-spacing="0.321428552" fill="#B4B4BC">
                        <tspan x="26.8577143" y="15">ROI</tspan>
                    </text>
                    <ellipse id="Oval-6" fill="#F5A623" fill-rule="nonzero" cx="15" cy="12.75" rx="3" ry="3.75"></ellipse>
                </g>
                <g id="Group-23-Copy-4">
                    <rect id="Rectangle-12" fill-rule="nonzero" x="0" y="0" width="55.5" height="25.5" rx="10.875"></rect>
                    <text id="LTV" font-family="HelveticaNeue-Medium, Helvetica Neue" font-size="9" font-weight="400" letter-spacing="0.321428552" fill="#BEBEC7">
                        <tspan x="39.3617143" y="15">LTV</tspan>
                    </text>
                    <ellipse id="Oval-6" fill="#FB49C0" fill-rule="nonzero" cx="15" cy="12.75" rx="3" ry="3.75"></ellipse>
                </g>
            </g>
        </g>
    </g>
</svg>