<?xml version="1.0" encoding="UTF-8"?>
<svg width="891px" height="361px" viewBox="0 0 891 361" version="1.1" xmlns="http://www.w3.org/2000/svg" xmlns:xlink="http://www.w3.org/1999/xlink">
    <!-- Generator: Sketch 63.1 (92452) - https://sketch.com -->
    <title>Group 10</title>
    <desc>Created with Sketch.</desc>
    <defs>
        <linearGradient x1="133.914739%" y1="42.7051915%" x2="-39.0604908%" y2="60.3538063%" id="linearGradient-1">
            <stop stop-color="#32C5FF" offset="0%"></stop>
            <stop stop-color="#B620E0" offset="51.2583893%"></stop>
            <stop stop-color="#F7B500" offset="100%"></stop>
        </linearGradient>
        <linearGradient x1="133.914739%" y1="42.7051915%" x2="-39.0604908%" y2="60.3538063%" id="linearGradient-2">
            <stop stop-color="#FF0063" offset="0%"></stop>
            <stop stop-color="#001923" offset="100%"></stop>
        </linearGradient>
    </defs>
    <g id="Page-1" stroke="none" stroke-width="1" fill="none" fill-rule="evenodd">
        <g id="Desktop-HD" transform="translate(0.000000, -1498.000000)">
            <g id="Group-10" transform="translate(-94.000000, 1498.000000)">
                <text id="product-propensity" font-family="SFProDisplay-Regular, SF Pro Display" font-size="12" font-weight="normal" fill="#FFFFFF" fill-opacity="0.6">
                    <tspan x="47" y="346">PRODUCT</tspan>
                    <tspan x="47" y="360">PROPENSITY</tspan>
                </text>
                <text id="Lifetime-value" font-family="SFProDisplay-Regular, SF Pro Display" font-size="12" font-weight="normal" fill="#FFFFFF" fill-opacity="0.6">
                    <tspan x="133" y="346">LIFETIME </tspan>
                    <tspan x="133" y="360">VALUE</tspan>
                </text>
                <text id="churn-risk" font-family="SFProDisplay-Regular, SF Pro Display" font-size="12" font-weight="normal" fill="#FFFFFF" fill-opacity="0.6">
                    <tspan x="219" y="346">CHURN </tspan>
                    <tspan x="219" y="360">RISK</tspan>
                </text>
                <text id="Offer-type" font-family="SFProDisplay-Regular, SF Pro Display" font-size="12" font-weight="normal" fill="#FFFFFF" fill-opacity="0.6">
                    <tspan x="305" y="346">OFFER </tspan>
                    <tspan x="305" y="360">TYPE</tspan>
                </text>
                <text id="Offer-value" font-family="SFProDisplay-Regular, SF Pro Display" font-size="12" font-weight="normal" fill="#FFFFFF" fill-opacity="0.6">
                    <tspan x="391" y="346">OFFER </tspan>
                    <tspan x="391" y="360">VALUE</tspan>
                </text>
                <text id="Offer-channel" font-family="SFProDisplay-Regular, SF Pro Display" font-size="12" font-weight="normal" fill="#FFFFFF" fill-opacity="0.6">
                    <tspan x="477" y="346">OFFER </tspan>
                    <tspan x="477" y="360">CHANNEL</tspan>
                </text>
                <text id="delivery-time" font-family="SFProDisplay-Regular, SF Pro Display" font-size="12" font-weight="normal" fill="#FFFFFF" fill-opacity="0.6">
                    <tspan x="563" y="346">DELIVERY </tspan>
                    <tspan x="563" y="360">TIME</tspan>
                </text>
                <text id="campaign-count" font-family="SFProDisplay-Regular, SF Pro Display" font-size="12" font-weight="normal" fill="#FFFFFF" fill-opacity="0.6">
                    <tspan x="649" y="346">CAMPAIGN </tspan>
                    <tspan x="649" y="360">COUNT</tspan>
                </text>
                <text id="campaign-duration" font-family="SFProDisplay-Regular, SF Pro Display" font-size="12" font-weight="normal" fill="#FFFFFF" fill-opacity="0.6">
                    <tspan x="735" y="346">CAMPAIGN </tspan>
                    <tspan x="735" y="360">DURATION</tspan>
                </text>
                <path d="M64,300 C70.627417,300 76,305.372583 76,312 C76,318.627417 70.627417,324 64,324 C57.372583,324 52,318.627417 52,312 C52,305.372583 57.372583,300 64,300 Z M150,300 C156.627417,300 162,305.372583 162,312 C162,318.627417 156.627417,324 150,324 C143.372583,324 138,318.627417 138,312 C138,305.372583 143.372583,300 150,300 Z M236,300 C242.627417,300 248,305.372583 248,312 C248,318.627417 242.627417,324 236,324 C229.372583,324 224,318.627417 224,312 C224,305.372583 229.372583,300 236,300 Z M322,300 C328.627417,300 334,305.372583 334,312 C334,318.627417 328.627417,324 322,324 C315.372583,324 310,318.627417 310,312 C310,305.372583 315.372583,300 322,300 Z M408,300 C414.627417,300 420,305.372583 420,312 C420,318.627417 414.627417,324 408,324 C401.372583,324 396,318.627417 396,312 C396,305.372583 401.372583,300 408,300 Z M494,300 C500.627417,300 506,305.372583 506,312 C506,318.627417 500.627417,324 494,324 C487.372583,324 482,318.627417 482,312 C482,305.372583 487.372583,300 494,300 Z M580,300 C586.627417,300 592,305.372583 592,312 C592,318.627417 586.627417,324 580,324 C573.372583,324 568,318.627417 568,312 C568,305.372583 573.372583,300 580,300 Z M666,300 C672.627417,300 678,305.372583 678,312 C678,318.627417 672.627417,324 666,324 C659.372583,324 654,318.627417 654,312 C654,305.372583 659.372583,300 666,300 Z M752,300 C758.627417,300 764,305.372583 764,312 C764,318.627417 758.627417,324 752,324 C745.372583,324 740,318.627417 740,312 C740,305.372583 745.372583,300 752,300 Z M408,240 C414.627417,240 420,245.372583 420,252 C420,258.627417 414.627417,264 408,264 C401.372583,264 396,258.627417 396,252 C396,245.372583 401.372583,240 408,240 Z M64,240 C70.627417,240 76,245.372583 76,252 C76,258.627417 70.627417,264 64,264 C57.372583,264 52,258.627417 52,252 C52,245.372583 57.372583,240 64,240 Z M494,240 C500.627417,240 506,245.372583 506,252 C506,258.627417 500.627417,264 494,264 C487.372583,264 482,258.627417 482,252 C482,245.372583 487.372583,240 494,240 Z M150,240 C156.627417,240 162,245.372583 162,252 C162,258.627417 156.627417,264 150,264 C143.372583,264 138,258.627417 138,252 C138,245.372583 143.372583,240 150,240 Z M580,240 C586.627417,240 592,245.372583 592,252 C592,258.627417 586.627417,264 580,264 C573.372583,264 568,258.627417 568,252 C568,245.372583 573.372583,240 580,240 Z M236,240 C242.627417,240 248,245.372583 248,252 C248,258.627417 242.627417,264 236,264 C229.372583,264 224,258.627417 224,252 C224,245.372583 229.372583,240 236,240 Z M666,240 C672.627417,240 678,245.372583 678,252 C678,258.627417 672.627417,264 666,264 C659.372583,264 654,258.627417 654,252 C654,245.372583 659.372583,240 666,240 Z M322,240 C328.627417,240 334,245.372583 334,252 C334,258.627417 328.627417,264 322,264 C315.372583,264 310,258.627417 310,252 C310,245.372583 315.372583,240 322,240 Z M752,240 C758.627417,240 764,245.372583 764,252 C764,258.627417 758.627417,264 752,264 C745.372583,264 740,258.627417 740,252 C740,245.372583 745.372583,240 752,240 Z M752,180 C758.627417,180 764,185.372583 764,192 C764,198.627417 758.627417,204 752,204 C745.372583,204 740,198.627417 740,192 C740,185.372583 745.372583,180 752,180 Z M64,180 C70.627417,180 76,185.372583 76,192 C76,198.627417 70.627417,204 64,204 C57.372583,204 52,198.627417 52,192 C52,185.372583 57.372583,180 64,180 Z M150,180 C156.627417,180 162,185.372583 162,192 C162,198.627417 156.627417,204 150,204 C143.372583,204 138,198.627417 138,192 C138,185.372583 143.372583,180 150,180 Z M236,180 C242.627417,180 248,185.372583 248,192 C248,198.627417 242.627417,204 236,204 C229.372583,204 224,198.627417 224,192 C224,185.372583 229.372583,180 236,180 Z M322,180 C328.627417,180 334,185.372583 334,192 C334,198.627417 328.627417,204 322,204 C315.372583,204 310,198.627417 310,192 C310,185.372583 315.372583,180 322,180 Z M408,180 C414.627417,180 420,185.372583 420,192 C420,198.627417 414.627417,204 408,204 C401.372583,204 396,198.627417 396,192 C396,185.372583 401.372583,180 408,180 Z M494,180 C500.627417,180 506,185.372583 506,192 C506,198.627417 500.627417,204 494,204 C487.372583,204 482,198.627417 482,192 C482,185.372583 487.372583,180 494,180 Z M580,180 C586.627417,180 592,185.372583 592,192 C592,198.627417 586.627417,204 580,204 C573.372583,204 568,198.627417 568,192 C568,185.372583 573.372583,180 580,180 Z M666,180 C672.627417,180 678,185.372583 678,192 C678,198.627417 672.627417,204 666,204 C659.372583,204 654,198.627417 654,192 C654,185.372583 659.372583,180 666,180 Z M580,120 C586.627417,120 592,125.372583 592,132 C592,138.627417 586.627417,144 580,144 C573.372583,144 568,138.627417 568,132 C568,125.372583 573.372583,120 580,120 Z M408,120 C414.627417,120 420,125.372583 420,132 C420,138.627417 414.627417,144 408,144 C401.372583,144 396,138.627417 396,132 C396,125.372583 401.372583,120 408,120 Z M666,120 C672.627417,120 678,125.372583 678,132 C678,138.627417 672.627417,144 666,144 C659.372583,144 654,138.627417 654,132 C654,125.372583 659.372583,120 666,120 Z M322,120 C328.627417,120 334,125.372583 334,132 C334,138.627417 328.627417,144 322,144 C315.372583,144 310,138.627417 310,132 C310,125.372583 315.372583,120 322,120 Z M150,120 C156.627417,120 162,125.372583 162,132 C162,138.627417 156.627417,144 150,144 C143.372583,144 138,138.627417 138,132 C138,125.372583 143.372583,120 150,120 Z M236,120 C242.627417,120 248,125.372583 248,132 C248,138.627417 242.627417,144 236,144 C229.372583,144 224,138.627417 224,132 C224,125.372583 229.372583,120 236,120 Z M752,120 C758.627417,120 764,125.372583 764,132 C764,138.627417 758.627417,144 752,144 C745.372583,144 740,138.627417 740,132 C740,125.372583 745.372583,120 752,120 Z M64,120 C70.627417,120 76,125.372583 76,132 C76,138.627417 70.627417,144 64,144 C57.372583,144 52,138.627417 52,132 C52,125.372583 57.372583,120 64,120 Z M494,120 C500.627417,120 506,125.372583 506,132 C506,138.627417 500.627417,144 494,144 C487.372583,144 482,138.627417 482,132 C482,125.372583 487.372583,120 494,120 Z M64,60 C70.627417,60 76,65.372583 76,72 C76,78.627417 70.627417,84 64,84 C57.372583,84 52,78.627417 52,72 C52,65.372583 57.372583,60 64,60 Z M236,60 C242.627417,60 248,65.372583 248,72 C248,78.627417 242.627417,84 236,84 C229.372583,84 224,78.627417 224,72 C224,65.372583 229.372583,60 236,60 Z M322,60 C328.627417,60 334,65.372583 334,72 C334,78.627417 328.627417,84 322,84 C315.372583,84 310,78.627417 310,72 C310,65.372583 315.372583,60 322,60 Z M408,60 C414.627417,60 420,65.372583 420,72 C420,78.627417 414.627417,84 408,84 C401.372583,84 396,78.627417 396,72 C396,65.372583 401.372583,60 408,60 Z M494,60 C500.627417,60 506,65.372583 506,72 C506,78.627417 500.627417,84 494,84 C487.372583,84 482,78.627417 482,72 C482,65.372583 487.372583,60 494,60 Z M580,60 C586.627417,60 592,65.372583 592,72 C592,78.627417 586.627417,84 580,84 C573.372583,84 568,78.627417 568,72 C568,65.372583 573.372583,60 580,60 Z M666,60 C672.627417,60 678,65.372583 678,72 C678,78.627417 672.627417,84 666,84 C659.372583,84 654,78.627417 654,72 C654,65.372583 659.372583,60 666,60 Z M150,60 C156.627417,60 162,65.372583 162,72 C162,78.627417 156.627417,84 150,84 C143.372583,84 138,78.627417 138,72 C138,65.372583 143.372583,60 150,60 Z M752,60 C758.627417,60 764,65.372583 764,72 C764,78.627417 758.627417,84 752,84 C745.372583,84 740,78.627417 740,72 C740,65.372583 745.372583,60 752,60 Z M64,0 C70.627417,0 76,5.372583 76,12 C76,18.627417 70.627417,24 64,24 C57.372583,24 52,18.627417 52,12 C52,5.372583 57.372583,0 64,0 Z M150,0 C156.627417,0 162,5.372583 162,12 C162,18.627417 156.627417,24 150,24 C143.372583,24 138,18.627417 138,12 C138,5.372583 143.372583,0 150,0 Z M236,0 C242.627417,0 248,5.372583 248,12 C248,18.627417 242.627417,24 236,24 C229.372583,24 224,18.627417 224,12 C224,5.372583 229.372583,0 236,0 Z M322,0 C328.627417,0 334,5.372583 334,12 C334,18.627417 328.627417,24 322,24 C315.372583,24 310,18.627417 310,12 C310,5.372583 315.372583,0 322,0 Z M408,0 C414.627417,0 420,5.372583 420,12 C420,18.627417 414.627417,24 408,24 C401.372583,24 396,18.627417 396,12 C396,5.372583 401.372583,0 408,0 Z M494,0 C500.627417,0 506,5.372583 506,12 C506,18.627417 500.627417,24 494,24 C487.372583,24 482,18.627417 482,12 C482,5.372583 487.372583,0 494,0 Z M580,0 C586.627417,0 592,5.372583 592,12 C592,18.627417 586.627417,24 580,24 C573.372583,24 568,18.627417 568,12 C568,5.372583 573.372583,0 580,0 Z M666,0 C672.627417,0 678,5.372583 678,12 C678,18.627417 672.627417,24 666,24 C659.372583,24 654,18.627417 654,12 C654,5.372583 659.372583,0 666,0 Z M752,0 C758.627417,0 764,5.372583 764,12 C764,18.627417 758.627417,24 752,24 C745.372583,24 740,18.627417 740,12 C740,5.372583 745.372583,0 752,0 Z" id="Oval-3" fill="url(#linearGradient-1)" opacity="0.441987537"></path>
                <path d="M0,311.971281 C25.7443554,311.971281 63.9371809,311.971281 65.6467956,311.971281 C104.606607,307.612102 124.652727,288.918471 151.700565,251.980854 C178.748403,215.043237 207.026588,191.990427 236.04472,191.990427 C265.062851,191.990427 290.723683,191.990427 322.098489,191.990427 C353.473295,191.990427 351.392707,314.146873 409.861873,311.971281 C468.331039,309.795689 466.519248,222.729968 495.915642,191.990427 C525.312036,161.250886 538.942527,132 581.969412,132 C624.996296,132 647.552235,169.394867 668.023181,191.990427 C688.494127,214.585987 731.562883,247.490389 754.07695,251.980854 C767.946586,251.980854 779.920935,252.147494 790,252.480774" id="Path-2" stroke="#ADAEB6" opacity="0.246512277"></path>
                <path d="M0,192 C34.6197855,192 55.9321791,192 63.9371809,192 C97.8925605,103.532626 117.22186,72 149.99095,72 C182.76004,72 193.017835,132 236.04472,132 C279.071604,132 286.042151,72 322.098489,72 C358.154827,72 362.176296,192 408.152258,192 C454.128221,192 445.835121,12 494.206028,12 C528.719096,12 557.745729,72 580.259797,72 C602.773865,72 623.174938,72 666.313566,72 C717.793223,72 710.560272,132 752.367336,132 C775.012622,132 787.556844,132 790,132" id="Path-3" stroke="#ACAEB6" opacity="0.246512277"></path>
                <path d="M64,300 C70.627417,300 76,305.372583 76,312 C76,318.627417 70.627417,324 64,324 C57.372583,324 52,318.627417 52,312 C52,305.372583 57.372583,300 64,300 Z M408,300 C414.627417,300 420,305.372583 420,312 C420,318.627417 414.627417,324 408,324 C401.372583,324 396,318.627417 396,312 C396,305.372583 401.372583,300 408,300 Z M150,240 C156.627417,240 162,245.372583 162,252 C162,258.627417 156.627417,264 150,264 C143.372583,264 138,258.627417 138,252 C138,245.372583 143.372583,240 150,240 Z M752,240 C758.627417,240 764,245.372583 764,252 C764,258.627417 758.627417,264 752,264 C745.372583,264 740,258.627417 740,252 C740,245.372583 745.372583,240 752,240 Z M64,180 C70.627417,180 76,185.372583 76,192 C76,198.627417 70.627417,204 64,204 C57.372583,204 52,198.627417 52,192 C52,185.372583 57.372583,180 64,180 Z M236,180 C242.627417,180 248,185.372583 248,192 C248,198.627417 242.627417,204 236,204 C229.372583,204 224,198.627417 224,192 C224,185.372583 229.372583,180 236,180 Z M322,180 C328.627417,180 334,185.372583 334,192 C334,198.627417 328.627417,204 322,204 C315.372583,204 310,198.627417 310,192 C310,185.372583 315.372583,180 322,180 Z M408,180 C414.627417,180 420,185.372583 420,192 C420,198.627417 414.627417,204 408,204 C401.372583,204 396,198.627417 396,192 C396,185.372583 401.372583,180 408,180 Z M494,180 C500.627417,180 506,185.372583 506,192 C506,198.627417 500.627417,204 494,204 C487.372583,204 482,198.627417 482,192 C482,185.372583 487.372583,180 494,180 Z M666,180 C672.627417,180 678,185.372583 678,192 C678,198.627417 672.627417,204 666,204 C659.372583,204 654,198.627417 654,192 C654,185.372583 659.372583,180 666,180 Z M236,120 C242.627417,120 248,125.372583 248,132 C248,138.627417 242.627417,144 236,144 C229.372583,144 224,138.627417 224,132 C224,125.372583 229.372583,120 236,120 Z M580,120 C586.627417,120 592,125.372583 592,132 C592,138.627417 586.627417,144 580,144 C573.372583,144 568,138.627417 568,132 C568,125.372583 573.372583,120 580,120 Z M752,120 C758.627417,120 764,125.372583 764,132 C764,138.627417 758.627417,144 752,144 C745.372583,144 740,138.627417 740,132 C740,125.372583 745.372583,120 752,120 Z M150,60 C156.627417,60 162,65.372583 162,72 C162,78.627417 156.627417,84 150,84 C143.372583,84 138,78.627417 138,72 C138,65.372583 143.372583,60 150,60 Z M322,60 C328.627417,60 334,65.372583 334,72 C334,78.627417 328.627417,84 322,84 C315.372583,84 310,78.627417 310,72 C310,65.372583 315.372583,60 322,60 Z M580,60 C586.627417,60 592,65.372583 592,72 C592,78.627417 586.627417,84 580,84 C573.372583,84 568,78.627417 568,72 C568,65.372583 573.372583,60 580,60 Z M666,60 C672.627417,60 678,65.372583 678,72 C678,78.627417 672.627417,84 666,84 C659.372583,84 654,78.627417 654,72 C654,65.372583 659.372583,60 666,60 Z M494,0 C500.627417,0 506,5.372583 506,12 C506,18.627417 500.627417,24 494,24 C487.372583,24 482,18.627417 482,12 C482,5.372583 487.372583,0 494,0 Z" id="Oval-3" fill="url(#linearGradient-2)"></path>
                <g id="Group-11" transform="translate(787.000000, 125.000000)">
                    <text id="Highest-Profit-Path" font-family="SFProDisplay-Regular, SF Pro Display" font-size="12" font-weight="normal" fill="#FFFFFF" fill-opacity="0.6">
                        <tspan x="10" y="11">Highest Profit Path</tspan>
                    </text>
                    <circle id="Oval" fill="#D8D8D8" cx="2.5" cy="7.5" r="2.5"></circle>
                </g>
                <g id="Group-11" transform="translate(787.000000, 245.000000)">
                    <text id="Highest-CLV-Path" font-family="SFProDisplay-Regular, SF Pro Display" font-size="12" font-weight="normal" fill="#FFFFFF" fill-opacity="0.6">
                        <tspan x="10" y="11">Highest CLV Path</tspan>
                    </text>
                    <circle id="Oval" fill="#D8D8D8" cx="2.5" cy="7.5" r="2.5"></circle>
                </g>
            </g>
        </g>
    </g>
</svg>