<?xml version="1.0" encoding="UTF-8"?>
<svg width="193px" height="193px" viewBox="0 0 193 193" version="1.1" xmlns="http://www.w3.org/2000/svg" xmlns:xlink="http://www.w3.org/1999/xlink">
    <!-- Generator: Sketch 63.1 (92452) - https://sketch.com -->
    <title>Group 9</title>
    <desc>Created with Sketch.</desc>
    <g id="Page-1" stroke="none" stroke-width="1" fill="none" fill-rule="evenodd">
        <g id="Desktop-HD" transform="translate(-201.000000, -2665.000000)">
            <g id="Group-13" transform="translate(129.000000, 2650.000000)">
                <g id="Group-9" transform="translate(57.000000, 0.000000)">
                    <g id="Group-5">
                        <path d="M167.013055,38 C184.126672,38 198,51.8968636 198,69.0395137 C198,84.1199285 149.497287,113.059415 126.177092,119.803929 C114.292386,142.911442 71.6547062,186 56.9869452,186 C39.8733279,186 26,172.103136 26,154.960486 C26,139.110638 84.4904915,108.730438 106.83897,104.238375 C113.9631,82.9180293 151.555453,38 167.013055,38 Z" id="Oval-2" fill="#410095" opacity="0.581380208"></path>
                        <path d="M154.632183,49.804829 C168.105714,49.804829 179.028169,61.4187881 179.028169,75.7453327 C179.028169,88.2879622 141.207495,112.302119 122.74764,118.088046 C113.420442,137.466148 79.8732735,173.643863 68.3358149,173.643863 C54.8799581,173.643863 43.971831,161.985371 43.971831,147.603891 C43.971831,134.372425 89.5093501,109.070708 107.271267,105.108819 C112.927731,87.2656964 142.475123,49.804829 154.632183,49.804829 Z" id="Oval-2" fill="#410095" opacity="0.581380208" transform="translate(111.500000, 111.724346) rotate(-210.000000) translate(-111.500000, -111.724346) "></path>
                        <path d="M147.754956,68.2012072 C159.079334,68.2012072 168.259557,76.3383761 168.259557,86.3760825 C168.259557,95.137889 136.659615,111.889541 121.094552,116.006603 C113.55374,129.480328 84.9740509,155.247485 75.2008048,155.247485 C63.9008588,155.247485 54.7404427,147.08654 54.7404427,137.019505 C54.7404427,127.772708 92.8562321,110.104501 107.824208,107.286756 C112.24985,94.9272191 137.444137,68.2012072 147.754956,68.2012072 Z" id="Oval-2" fill="#410095" opacity="0.581380208" transform="translate(111.500000, 111.724346) rotate(72.000000) translate(-111.500000, -111.724346) "></path>
                        <path d="M167.013055,38 C184.126672,38 198,51.8968636 198,69.0395137 C198,84.1199285 149.497287,113.059415 126.177092,119.803929 C114.292386,142.911442 71.6547062,186 56.9869452,186 C39.8733279,186 26,172.103136 26,154.960486 C26,139.110638 84.4904915,108.730438 106.83897,104.238375 C113.9631,82.9180293 151.555453,38 167.013055,38 Z" id="Oval-2" fill="#B17DFF" opacity="0.118698847" transform="translate(112.000000, 112.000000) rotate(-270.000000) translate(-112.000000, -112.000000) "></path>
                        <path d="M154.632183,49.804829 C168.105714,49.804829 179.028169,61.4187881 179.028169,75.7453327 C179.028169,88.2879622 141.207495,112.302119 122.74764,118.088046 C113.420442,137.466148 79.8732735,173.643863 68.3358149,173.643863 C54.8799581,173.643863 43.971831,161.985371 43.971831,147.603891 C43.971831,134.372425 89.5093501,109.070708 107.271267,105.108819 C112.927731,87.2656964 142.475123,49.804829 154.632183,49.804829 Z" id="Oval-2" fill="#B17DFF" opacity="0.118698847" transform="translate(111.500000, 111.724346) rotate(-120.000000) translate(-111.500000, -111.724346) "></path>
                        <path d="M147.754956,68.2012072 C159.079334,68.2012072 168.259557,76.3383761 168.259557,86.3760825 C168.259557,95.137889 136.659615,111.889541 121.094552,116.006603 C113.55374,129.480328 84.9740509,155.247485 75.2008048,155.247485 C63.9008588,155.247485 54.7404427,147.08654 54.7404427,137.019505 C54.7404427,127.772708 92.8562321,110.104501 107.824208,107.286756 C112.24985,94.9272191 137.444137,68.2012072 147.754956,68.2012072 Z" id="Oval-2" fill="#B17DFF" opacity="0.118698847" transform="translate(111.500000, 111.724346) rotate(-195.000000) translate(-111.500000, -111.724346) "></path>
                        <path d="M166.464789,37.6901408 C183.563391,37.6901408 197.424547,51.5512969 197.424547,68.6498994 C197.424547,83.6915655 148.964388,112.556693 125.664653,119.283877 C113.790885,142.331501 71.1901913,185.309859 56.5352113,185.309859 C39.4366088,185.309859 25.5754527,171.448703 25.5754527,154.350101 C25.5754527,138.541106 84.0136805,108.23933 106.342955,103.758427 C113.462177,82.4918012 151.020913,37.6901408 166.464789,37.6901408 Z" id="Oval-2" fill="#FF00E5" opacity="0.118698847" transform="translate(111.500000, 111.500000) rotate(-30.000000) translate(-111.500000, -111.500000) "></path>
                        <path d="M154.632183,49.804829 C168.105714,49.804829 179.028169,61.4187881 179.028169,75.7453327 C179.028169,88.2879622 141.207495,112.302119 122.74764,118.088046 C113.420442,137.466148 79.8732735,173.643863 68.3358149,173.643863 C54.8799581,173.643863 43.971831,161.985371 43.971831,147.603891 C43.971831,134.372425 89.5093501,109.070708 107.271267,105.108819 C112.927731,87.2656964 142.475123,49.804829 154.632183,49.804829 Z" id="Oval-2" fill="#FF0000" opacity="0.118698847" transform="translate(111.500000, 111.724346) rotate(-240.000000) translate(-111.500000, -111.724346) "></path>
                        <path d="M147.754956,68.2012072 C159.079334,68.2012072 168.259557,76.3383761 168.259557,86.3760825 C168.259557,95.137889 136.659615,111.889541 121.094552,116.006603 C113.55374,129.480328 84.9740509,155.247485 75.2008048,155.247485 C63.9008588,155.247485 54.7404427,147.08654 54.7404427,137.019505 C54.7404427,127.772708 92.8562321,110.104501 107.824208,107.286756 C112.24985,94.9272191 137.444137,68.2012072 147.754956,68.2012072 Z" id="Oval-2" fill="#FF00E5" opacity="0.118698847" transform="translate(111.500000, 111.724346) rotate(42.000000) translate(-111.500000, -111.724346) "></path>
                        <path d="M166.464789,37.6901408 C183.563391,37.6901408 197.424547,51.5512969 197.424547,68.6498994 C197.424547,83.6915655 148.964388,112.556693 125.664653,119.283877 C113.790885,142.331501 71.1901913,185.309859 56.5352113,185.309859 C39.4366088,185.309859 25.5754527,171.448703 25.5754527,154.350101 C25.5754527,138.541106 84.0136805,108.23933 106.342955,103.758427 C113.462177,82.4918012 151.020913,37.6901408 166.464789,37.6901408 Z" id="Oval-2" fill="#FF00E5" opacity="0.118698847" transform="translate(111.500000, 111.500000) rotate(-300.000000) translate(-111.500000, -111.500000) "></path>
                        <path d="M154.632183,49.804829 C168.105714,49.804829 179.028169,61.4187881 179.028169,75.7453327 C179.028169,88.2879622 141.207495,112.302119 122.74764,118.088046 C113.420442,137.466148 79.8732735,173.643863 68.3358149,173.643863 C54.8799581,173.643863 43.971831,161.985371 43.971831,147.603891 C43.971831,134.372425 89.5093501,109.070708 107.271267,105.108819 C112.927731,87.2656964 142.475123,49.804829 154.632183,49.804829 Z" id="Oval-2" fill="#FF0000" opacity="0.118698847" transform="translate(111.500000, 111.724346) rotate(-150.000000) translate(-111.500000, -111.724346) "></path>
                        <path d="M147.754956,68.2012072 C159.079334,68.2012072 168.259557,76.3383761 168.259557,86.3760825 C168.259557,95.137889 136.659615,111.889541 121.094552,116.006603 C113.55374,129.480328 84.9740509,155.247485 75.2008048,155.247485 C63.9008588,155.247485 54.7404427,147.08654 54.7404427,137.019505 C54.7404427,127.772708 92.8562321,110.104501 107.824208,107.286756 C112.24985,94.9272191 137.444137,68.2012072 147.754956,68.2012072 Z" id="Oval-2" fill="#FF0000" opacity="0.118698847" transform="translate(111.500000, 111.724346) rotate(-225.000000) translate(-111.500000, -111.724346) "></path>
                    </g>
                    <circle id="Oval" fill-opacity="0.230823864" fill="#B4B4B4" cx="111.5" cy="111.5" r="24.5"></circle>
                </g>
            </g>
        </g>
    </g>
</svg>