<?xml version="1.0" encoding="UTF-8"?>
<svg width="150px" height="220px" viewBox="0 0 150 220" version="1.1" xmlns="http://www.w3.org/2000/svg" xmlns:xlink="http://www.w3.org/1999/xlink">
    <!-- Generator: Sketch 63.1 (92452) - https://sketch.com -->
    <title>Group 16</title>
    <desc>Created with Sketch.</desc>
    <g id="Page-1" stroke="none" stroke-width="1" fill="none" fill-rule="evenodd" opacity="0.795224144">
        <g id="Desktop-HD" transform="translate(-1077.000000, -2663.000000)">
            <g id="Group-18" transform="translate(992.000000, 2660.000000)">
                <g id="Group-16" transform="translate(78.000000, 0.000000)">
                    <path d="M52.6005303,54.4577717 C45.6677781,61.1756199 45.6677781,164.734478 52.6005303,173.559124 C59.5332826,182.383771 128.198068,127.995498 128.198068,114.008448 C128.198068,100.021398 59.5332826,47.7399235 52.6005303,54.4577717 Z" id="Path-4" fill="#9900FF" opacity="0.154808408"></path>
                    <path d="M32.8890979,21.3793351 C22.0740044,31.6960305 22.0740044,190.732848 32.8890979,204.284984 C43.7041913,217.83712 150.821256,134.312272 150.821256,112.832159 C150.821256,91.3520468 43.7041913,11.0626396 32.8890979,21.3793351 Z" id="Path-4" fill="#FF0000" opacity="0.154808408"></path>
                    <path d="M56.3550889,60.8474102 C50.1618303,66.7255273 50.1618303,157.339528 56.3550889,165.061094 C62.5483476,172.78266 123.888889,125.192921 123.888889,112.954252 C123.888889,100.715583 62.5483476,54.969293 56.3550889,60.8474102 Z" id="Path-4" fill="#9900FF" opacity="0.154808408"></path>
                    <path d="M56.3550889,60.8474102 C50.1618303,66.7255273 50.1618303,157.339528 56.3550889,165.061094 C62.5483476,172.78266 123.888889,125.192921 123.888889,112.954252 C123.888889,100.715583 62.5483476,54.969293 56.3550889,60.8474102 Z" id="Path-4" fill="#FF0000" opacity="0.154808408"></path>
                    <path d="M35.7050168,27.7901534 C25.4445435,37.507041 25.4445435,187.297532 35.7050168,200.061753 C45.9654901,212.825974 147.589372,134.157222 147.589372,113.925953 C147.589372,93.6946843 45.9654901,18.0732658 35.7050168,27.7901534 Z" id="Path-4" fill="#87009C" opacity="0.154808408"></path>
                    <path d="M40.398215,33.1183821 C31.0621087,42.175481 31.0621087,181.795013 40.398215,193.692527 C49.7343213,205.590042 142.202899,132.262995 142.202899,113.405455 C142.202899,94.5479139 49.7343213,24.0612831 40.398215,33.1183821 Z" id="Path-4" fill="#9900FF" opacity="0.154808408"></path>
                    <path d="M31.299801,19.1517687 C20.1671654,29.7725801 20.1440005,193.473198 31.2731594,207.421178 C42.4023184,221.369159 152.661732,135.379312 152.664861,113.269289 C152.667989,91.1592661 42.4324366,8.5309572 31.299801,19.1517687 Z" id="Path-4" fill="#9900FF" opacity="0.154808408" transform="translate(87.801579, 113.578078) rotate(-15.000000) translate(-87.801579, -113.578078) "></path>
                    <path d="M28.1958997,21.4640547 C16.4564392,32.7404428 16.4564392,206.571383 28.1958997,221.384183 C39.9353601,236.196982 156.207729,144.902381 156.207729,121.424119 C156.207729,97.9458559 39.9353601,10.1876666 28.1958997,21.4640547 Z" id="Path-4" fill="#87009C" opacity="0.154808408"></path>
                    <path d="M59.1710078,66.1915238 C53.5323694,71.5897947 53.5323694,154.806734 59.1710078,161.897968 C64.8096463,168.989202 120.657005,125.28434 120.657005,114.044746 C120.657005,102.805152 64.8096463,60.7932529 59.1710078,66.1915238 Z" id="Path-4" fill="#9900FF" opacity="0.154808408"></path>
                    <path d="M54.4778096,57.6525909 C47.9148042,63.9505736 47.9148042,161.037003 54.4778096,169.310109 C61.0408151,177.583215 126.043478,126.594209 126.043478,113.48135 C126.043478,100.368491 61.0408151,51.3546082 54.4778096,57.6525909 Z" id="Path-4" fill="#FF0093" opacity="0.154808408"></path>
                    <path d="M37.2451677,14.3528558 C26.5905907,24.5740137 26.6128905,182.161331 37.2708143,195.591458 C47.9287381,209.021585 153.458599,126.272945 153.455587,104.988608 C153.452575,83.70427 47.8997447,4.1316978 37.2451677,14.3528558 Z" id="Path-4" fill="#FF0093" opacity="0.154808408" transform="translate(91.360690, 105.253831) rotate(-345.000000) translate(-91.360690, -105.253831) "></path>
                </g>
            </g>
        </g>
    </g>
</svg>