<?xml version="1.0" encoding="UTF-8"?>
<svg  width="300" height="200" id="Livello_1" data-name="Livello 1" xmlns="http://www.w3.org/2000/svg" xmlns:xlink="http://www.w3.org/1999/xlink" viewBox="0 0 1002.24 339.47"><defs><style>.cls-1{font-size:226.01px;fill:#fff;font-family:Montserrat-Bold, Montserrat;font-weight:700;}.cls-2{fill:url(#linear-gradient);}.cls-3{fill:url(#linear-gradient-2);}.cls-4{fill:url(#linear-gradient-3);}</style><linearGradient id="linear-gradient" x1="65.24" y1="345.25" x2="60.76" y2="245.19" gradientUnits="userSpaceOnUse"><stop offset="0" stop-color="#00cdfc"/><stop offset="1" stop-color="#007ee7"/></linearGradient><linearGradient id="linear-gradient-2" x1="120.46" y1="142.88" x2="20.88" y2="203.09" gradientUnits="userSpaceOnUse"><stop offset="0" stop-color="#ef4f60"/><stop offset="1" stop-color="#ea2b9e"/></linearGradient><linearGradient id="linear-gradient-3" x1="53.21" y1="179.88" x2="235.35" y2="67.63" gradientUnits="userSpaceOnUse"><stop offset="0" stop-color="#f25e97"/><stop offset="1" stop-color="#f9b644"/></linearGradient></defs><title>plinth final 1-4</title><text class="cls-1" transform="translate(299.59 246.86)">plinth</text><path class="cls-2" d="M123.54,279.19v-6.11a39.39,39.39,0,0,1-19.74-5.29L19.74,219.26A39.46,39.46,0,0,1,0,185.08v76.37A31.6,31.6,0,0,0,15.79,288.8l84.06,48.53a15.79,15.79,0,0,0,23.69-13.68Z"/><path class="cls-3" d="M107.75,127.42l-40.9-23.61L23.68,78.89A15.79,15.79,0,0,0,0,92.56v92.52a39.46,39.46,0,0,0,19.74,34.18l84.06,48.53a39.39,39.39,0,0,0,19.74,5.29V154.77A31.6,31.6,0,0,0,107.75,127.42Z"/><path class="cls-4" d="M227.34,53.82,143.27,5.29a39.47,39.47,0,0,0-39.47,0L19.74,53.82A39.46,39.46,0,0,0,0,88v4.55A15.79,15.79,0,0,1,23.68,78.89l43.17,24.92,40.9,23.61a31.6,31.6,0,0,1,15.79,27.35V273.08a39.38,39.38,0,0,0,19.73-5.29l84.07-48.53a39.47,39.47,0,0,0,19.73-34.18V88A39.47,39.47,0,0,0,227.34,53.82Z"/></svg>
